<svg width="67" height="52" viewBox="0 0 67 52" fill="none" xmlns="http://www.w3.org/2000/svg">
<path d="M16.5101 26.7506C12.7424 20.0477 2.60777 18.5853 2.60777 18.5853C2.60777 18.5853 -1.42165 27.9867 2.34612 34.6809C6.11389 41.3837 16.2485 42.8462 16.2485 42.8462C16.2485 42.8462 20.2692 33.4535 16.5101 26.7506Z" fill="#005CBA"/>
<path opacity="0.15" d="M2.60777 18.5853C2.60777 18.5853 -1.42165 27.9867 2.34612 34.6809C6.11389 41.3837 16.2485 42.8462 16.2485 42.8462L2.60777 18.5853Z" fill="#003033"/>
<path d="M14.4867 24.1304C14.4693 24.113 14.4518 24.0956 14.4344 24.0781C10.7277 27.0814 10.2741 31.0335 10.2131 31.9649L7.00351 26.2544C6.94246 25.6625 6.73314 22.5548 8.32049 20.2305C8.29432 20.2218 8.26816 20.2131 8.25071 20.2044C6.77675 22.3894 6.85524 25.2272 6.9163 26.1064L3.85498 20.6658C3.81137 20.4046 3.72416 19.7343 3.87243 18.8377C3.84626 18.829 3.8201 18.829 3.79393 18.8203C3.67183 19.5515 3.70671 20.1435 3.75032 20.4743L2.70372 18.6027C2.64267 18.594 2.60778 18.5853 2.60778 18.5853C2.60778 18.5853 2.59034 18.6201 2.5729 18.6723L3.62822 20.5439C3.35785 20.335 2.87815 19.9955 2.18914 19.7169C2.18042 19.743 2.1717 19.7604 2.16298 19.7866C3.00026 20.1261 3.53228 20.5439 3.73288 20.718L6.78547 26.1586C6.07029 25.645 3.68055 24.1043 1.05532 24.2174C1.05532 24.2435 1.0466 24.2697 1.0466 24.2958C3.8637 24.1652 6.41044 25.9671 6.88141 26.3153L10.091 32.0258C9.26243 31.5906 5.64293 29.9105 1.15126 31.5035C1.15998 31.5296 1.15998 31.5558 1.1687 31.5819C5.87841 29.9105 9.6113 31.843 10.1608 32.1564L13.0215 37.2401C12.2801 37.0922 8.51236 36.4393 5.11091 37.9801C5.12835 37.9975 5.15451 38.0149 5.17196 38.0323C8.66063 36.4654 12.5243 37.2053 13.0651 37.3272L15.2019 41.1313C14.8443 41.14 13.6058 41.2096 12.0185 41.7581C12.0534 41.7755 12.097 41.7842 12.1319 41.8016C13.7367 41.2619 14.9577 41.2096 15.2368 41.2096L16.1526 42.8375C16.2136 42.8462 16.2485 42.8549 16.2485 42.8549C16.2485 42.8549 16.2659 42.8201 16.2834 42.7678L15.3676 41.14C15.5159 40.8963 16.1962 39.8952 17.487 38.8071C17.4957 38.7635 17.5044 38.7287 17.5131 38.6852C16.2223 39.7559 15.5246 40.757 15.324 41.0617L13.1872 37.2576C13.3703 36.7265 14.7484 33.053 17.9056 30.9029C17.9056 30.8768 17.8969 30.8507 17.8969 30.8245C14.8094 32.9225 13.3965 36.4567 13.1436 37.1705L10.2829 32.0868C10.3003 31.4513 10.6056 27.2642 14.4867 24.1304Z" fill="#003033"/>
<g opacity="0.3">
<path d="M12.5505 22.9378C12.4633 22.8768 12.3412 22.8943 12.2714 22.9813C12.2104 23.0684 12.2278 23.1902 12.315 23.2599C13.8675 24.3828 15.0536 25.6799 15.8647 27.1162C17.7312 30.4328 17.5131 34.4719 16.9986 37.2837C16.9811 37.3881 17.0509 37.4926 17.1555 37.51C17.1992 37.5187 17.2515 37.51 17.2864 37.4839C17.3387 37.4578 17.3736 37.4055 17.3823 37.3446C17.9056 34.4719 18.1237 30.3284 16.2049 26.916C15.3763 25.4361 14.1466 24.0955 12.5505 22.9378Z" fill="white"/>
<path d="M11.155 22.4851C11.2161 22.52 11.2946 22.52 11.3556 22.4851C11.3818 22.4677 11.408 22.4416 11.4254 22.4155C11.4777 22.3197 11.4516 22.1979 11.3556 22.1456C10.4835 21.6146 9.51536 21.1272 8.47748 20.7006C8.37282 20.6571 8.25944 20.7093 8.21583 20.8051C8.17222 20.9095 8.22456 21.0227 8.32049 21.0662C9.34093 21.4928 10.2916 21.9715 11.155 22.4851Z" fill="white"/>
</g>
<path d="M11.8702 37.6841C6.66337 35.3686 0 38.9724 0 38.9724C0 38.9724 1.7705 46.3282 6.97735 48.6437C12.1842 50.9593 18.8476 47.3554 18.8476 47.3554C18.8476 47.3554 17.0771 39.9996 11.8702 37.6841Z" fill="#005CBA"/>
<path opacity="0.15" d="M0 38.9724C0 38.9724 1.7705 46.3282 6.97735 48.6437C12.1842 50.9593 18.8476 47.3554 18.8476 47.3554L0 38.9724Z" fill="#003033"/>
<path d="M9.50664 37.0225C9.48919 37.0225 9.47175 37.0138 9.45431 37.0138C8.58214 40.4262 10.0648 42.9768 10.4486 43.56L6.00924 41.584C5.7127 41.2619 4.21257 39.5122 4.11664 37.423C4.09919 37.4317 4.08175 37.4317 4.06431 37.4404C4.16024 39.3816 5.45978 41.0356 5.88714 41.5317L1.66584 39.6514C1.51757 39.5122 1.17743 39.1553 0.872169 38.5633C0.854725 38.572 0.837282 38.5807 0.819838 38.5894C1.07277 39.0769 1.35186 39.4164 1.5263 39.5905L0.0697735 38.9463C0.0261651 38.9638 0 38.9725 0 38.9725C0 38.9725 0.00872169 38.9986 0.0174434 39.0421L1.47396 39.6863C1.22104 39.6776 0.784952 39.695 0.252929 39.8343C0.261651 39.8517 0.261651 39.8691 0.270372 39.8865C0.915777 39.7211 1.41291 39.7298 1.61351 39.7472L5.83481 41.6275C5.18068 41.6362 3.07876 41.7755 1.5699 43.0029C1.57863 43.0203 1.58735 43.0377 1.59607 43.0551C3.20958 41.732 5.52083 41.6797 5.95691 41.6797L10.3875 43.6558C9.69851 43.7602 6.81164 44.3609 4.84926 47.2945C4.8667 47.3032 4.87542 47.3206 4.89287 47.3293C6.95118 44.2651 10.0212 43.7602 10.4835 43.6993L14.4344 45.4577C13.9285 45.6927 11.3992 46.9724 10.0648 49.3924C10.0823 49.3924 10.1084 49.3924 10.1259 49.3924C11.5039 46.9201 14.1291 45.6579 14.5042 45.4838L17.4608 46.7983C17.2515 46.9637 16.5538 47.5469 15.8473 48.5741C15.8735 48.5654 15.9084 48.5567 15.9345 48.548C16.6497 47.5208 17.3474 46.9463 17.5131 46.8244L18.7778 47.3902C18.8214 47.3728 18.8388 47.3554 18.8388 47.3554C18.8388 47.3554 18.8301 47.3293 18.8214 47.2858L17.5568 46.7286C17.5393 46.5197 17.4957 45.6231 17.7835 44.4044C17.7748 44.3783 17.7574 44.3522 17.7486 44.3173C17.4521 45.5186 17.4783 46.4327 17.5044 46.6938L14.5478 45.3794C14.4257 44.9876 13.6146 42.1933 14.5303 39.5209C14.5129 39.5035 14.5042 39.4948 14.4867 39.4773C13.5797 42.0889 14.3123 44.8048 14.478 45.3445L10.5271 43.5861C10.2741 43.2118 8.59958 40.5916 9.50664 37.0225Z" fill="#003033"/>
<g opacity="0.3">
<path d="M7.83208 37.1705C7.75358 37.1705 7.68381 37.2401 7.68381 37.3185C7.68381 37.3968 7.75358 37.4665 7.83208 37.4665C9.24499 37.4491 10.5271 37.6928 11.6435 38.189C14.2164 39.3381 15.8822 41.8277 16.8241 43.7254C16.859 43.795 16.9462 43.8299 17.016 43.795C17.0509 43.7776 17.0683 43.7515 17.0858 43.7254C17.1032 43.6906 17.1032 43.6383 17.0858 43.6035C16.1264 41.671 14.4169 39.1117 11.7656 37.9365C10.6143 37.3968 9.2886 37.1444 7.83208 37.1705Z" fill="white"/>
<path d="M6.80292 37.5187C6.85525 37.51 6.89886 37.4752 6.92502 37.4317C6.93375 37.4056 6.94247 37.3881 6.93375 37.362C6.92502 37.2837 6.85525 37.2227 6.77675 37.2315C6.02669 37.3011 5.23302 37.4404 4.43062 37.6406C4.35213 37.658 4.30852 37.7363 4.32596 37.8147C4.3434 37.893 4.4219 37.9366 4.5004 37.9192C5.28535 37.7189 6.06158 37.5884 6.80292 37.5187Z" fill="white"/>
</g>
<path d="M65.2033 0H15.1234C14.1291 0 13.318 0.809568 13.318 1.80194V44.1519C13.318 48.104 16.5276 51.3074 20.4872 51.3074H59.8308C63.7904 51.3074 67 48.104 67 44.1519V1.80194C67 0.809568 66.1976 0 65.2033 0Z" fill="#E2EEFB"/>
<path opacity="0.1" d="M59.8308 47.9212H20.4872C16.5276 47.9212 13.318 44.7178 13.318 40.7657V44.1606C13.318 48.1127 16.5276 51.3162 20.4872 51.3162H59.8308C63.7904 51.3162 67 48.1127 67 44.1606V40.7657C67 44.7091 63.7904 47.9212 59.8308 47.9212Z" fill="#003033"/>
<path d="M52.0322 37.0917C58.5887 30.5477 58.5887 19.9377 52.0322 13.3937C45.4757 6.84965 34.8454 6.84965 28.2889 13.3937C21.7323 19.9377 21.7323 30.5477 28.2889 37.0917C34.8454 43.6357 45.4757 43.6357 52.0322 37.0917Z" fill="#9CC6F1"/>
<path d="M44.2626 16.0869C42.1694 15.9302 40.3029 16.5918 40.1546 16.6527C40.0064 16.6005 38.1399 15.9302 36.0467 16.0869C33.2209 16.3045 31.3545 18.8202 32.1743 21.2489C32.6453 22.633 33.282 24.4002 34.0146 26.0367C34.4507 27.0204 34.7472 28.0389 34.8955 29.0835C35.192 31.1814 35.8723 36.3348 37.1718 36.3348C38.4103 36.3348 39.204 32.3305 39.6575 30.2848C39.7709 29.7886 40.5471 29.7886 40.6605 30.2848C41.114 32.3217 41.9077 36.3348 43.1462 36.3348C44.4457 36.3348 45.126 31.1814 45.4225 29.0835C45.5708 28.0389 45.8674 27.0117 46.3034 26.0367C47.0273 24.4002 47.6727 22.633 48.135 21.2489C48.9636 18.8202 47.0884 16.3045 44.2626 16.0869Z" fill="white"/>
<g opacity="0.6">
<path d="M14.8356 3.17734C14.6699 3.17734 14.5391 3.30791 14.5391 3.47331V8.22626C14.5391 8.39165 14.6699 8.52223 14.8356 8.52223C15.0013 8.52223 15.1321 8.39165 15.1321 8.22626V3.47331C15.1321 3.30791 15.0013 3.17734 14.8356 3.17734Z" fill="white"/>
<path d="M14.8356 10.1152C14.6699 10.1152 14.5391 10.2458 14.5391 10.4112V37.0486C14.5391 37.214 14.6699 37.3446 14.8356 37.3446C15.0013 37.3446 15.1321 37.214 15.1321 37.0486V10.4112C15.1321 10.2458 15.0013 10.1152 14.8356 10.1152Z" fill="white"/>
</g>
</svg>
