<svg width="100" height="92" viewBox="0 0 100 92" fill="none" xmlns="http://www.w3.org/2000/svg">
<path d="M36.6667 52.0256V91.0448H0V58.5288C0 42.2708 3.33333 29.2644 6.66667 22.7612C13.3333 13.0064 20 6.5032 33.3333 0L43.3333 13.0064C33.3333 16.258 30 19.5096 26.6667 26.0128C23.3333 32.516 20 39.0192 20 52.0256H36.6667ZM96.6667 52.0256V91.0448H60V58.5288C60 42.2708 63.3333 29.2644 66.6667 22.7612C73.3333 13.0064 80 6.5032 93.3333 0L100 13.0064C93.3333 16.258 90 19.5096 86.6667 26.0128C83.3333 32.516 80 39.0192 80 52.0256H96.6667Z" fill="white" fill-opacity="0.2"/>
</svg>
