<?xml version="1.0" encoding="utf-8"?>
<!-- Generator: Adobe Illustrator 24.3.0, SVG Export Plug-In . SVG Version: 6.00 Build 0)  -->
<svg version="1.1" id="Layer_1" xmlns="http://www.w3.org/2000/svg" xmlns:xlink="http://www.w3.org/1999/xlink" x="0px" y="0px"
	 viewBox="0 0 53 60" style="enable-background:new 0 0 53 60;" xml:space="preserve">
<style type="text/css">
	.st0{fill:#F8FCFF;}
	.st1{fill:#DFF0F9;}
	.st2{fill:#157FEC;}
</style>
<g>
	<path class="st0" d="M26.7,36.6c0.1,0,0.2,0,0.3,0c0.2,0,0.4,0,0.6,0C35,37.1,34,51.5,34,51.5c0.3,3.6,3.4,2.2,3.4,2.2
		c7.4-5.3,5.5-23.2,5.5-23.2c5.5-8.1,2.2-17.3,2.2-17.3c-1.5-3.8-4.3-6.7-8.5-7.1C33,5.8,30,8.7,26.6,8.9c-3.4-0.2-6.4-3.1-10-2.8
		c-4.2,0.4-7.1,3.2-8.5,7.1c0,0-3.3,9.2,2.2,17.3c0,0-1.9,17.9,5.5,23.2c0,0,3.1,1.4,3.4-2.2c0,0-1-14.4,6.4-14.9
		C25.9,36.6,26.3,36.6,26.7,36.6z"/>
	<path class="st1" d="M22.2,38.2c-0.1,0.1-0.3,0.1-0.4,0.2c-2.1,1.2-2.4,3.4-2.9,5.6c-0.3,1.2-1.4,5.7-3.4,3.7
		c-1.2-1.2-1.5-3.1-1.7-4.7c-0.3-1.7-0.5-3.5-0.5-5.2c-0.1-3.6,0.4-7.5,3.2-10c-0.7-0.5-1.5-0.8-2.1-1.3c-0.7-0.6-1.2-1.3-1.5-2.2
		c-0.8-2-1.3-4.2-1.3-6.3c0.1-3.2,1.2-6.7,4.5-7.7s6.3,0.3,9.4,1.3c2,0.7,4.2,1.2,6.3,0.9c1.5-0.3,3.1-0.9,3.2-2.5
		c-1.4,0.7-3.2,0.6-4.7,0.4c-1.2-0.2-2.6-0.6-3.6-1.4c-3.4-0.2-6.4-3.1-10-2.8c-4.2,0.4-7.1,3.2-8.5,7.1c0,0-3.3,9.2,2.2,17.3
		c0,0-1.9,17.9,5.5,23.2c0,0,3.1,1.4,3.4-2.2C19.1,51.5,18.5,42.1,22.2,38.2z"/>
	<path class="st1" d="M45.9,22.8c-0.1,0.2-0.2,0.4-0.3,0.6c-0.8,1.6-2.1,2.8-3.6,3.7c-1,0.7-2.1,1.2-3.2,1.8
		c-0.3,0.1-0.5,0.3-0.8,0.4c-0.2,0.1,0,0.2,0.2,0.5c0.3,0.5,0.6,1,0.9,1.6c1,2.1,1.3,4.3,1.4,6.6c0.1,2.4,0.3,5-0.2,7.4
		c-0.2,1.1-0.6,2.2-1.1,3.3c-0.3,0.6-0.7,1.3-1.3,1.7c-0.5,0.3-1.3,0.5-1.8,0.1c-0.5-0.5-0.6-1.2-0.7-1.8c-0.2-1.6-0.5-3.2-0.8-4.7
		c-0.4-1.5-0.8-3.2-1.9-4.4c-0.5-0.6-1.1-1-1.8-1.2c3.7,3.8,3.1,13.3,3.1,13.3c0.3,3.6,3.4,2.2,3.4,2.2c7.4-5.3,5.5-23.2,5.5-23.2
		C44.7,27.9,45.5,25.3,45.9,22.8z"/>
	<path class="st2" d="M36.1,54.2c-0.4,0-0.8-0.1-1.2-0.3c-0.7-0.4-1.1-1.2-1.2-2.4l0,0c0-0.1,0.8-14.2-6.2-14.6c-0.2,0-0.4,0-0.6,0
		c-0.1,0-0.1,0-0.2,0h-0.1h-0.1c-0.3,0-0.7,0-1,0c-7.1,0.5-6.2,14.5-6.2,14.6l0,0c-0.1,1.2-0.5,2-1.2,2.4c-1.1,0.6-2.5,0-2.5,0l0,0
		C8.4,48.7,9.8,32.1,10,30.6c-5.4-8-2.3-17.1-2.2-17.5c1.7-4.3,4.8-6.9,8.7-7.2c2-0.2,3.9,0.6,5.6,1.4C23.6,8,25,8.6,26.5,8.7
		C28,8.6,29.4,8,30.9,7.3c1.8-0.8,3.6-1.6,5.6-1.4c4,0.3,7.1,2.9,8.7,7.2c0,0.1,3.3,9.3-2.2,17.5c0.1,1.5,1.6,18.1-5.6,23.3l0,0
		C37.5,53.9,36.9,54.2,36.1,54.2z M15.9,53.5c0.2,0.1,1.2,0.5,2.1,0c0.6-0.3,0.9-1,1-2c0-0.8-0.8-14.6,6.6-15.1c0.4,0,0.7,0,1,0h0.2
		c0.1,0,0.1,0,0.2,0c0.2,0,0.4,0,0.6,0c7.5,0.5,6.7,14.3,6.6,15.1c0.1,1,0.4,1.7,1,2c0.8,0.5,1.9,0,2.1,0c7.1-5.2,5.4-22.8,5.4-23
		c0,0,0-0.1,0-0.2c5.4-7.9,2.2-17,2.2-17.1c-1.6-4.1-4.5-6.6-8.3-6.9c-1.9-0.2-3.7,0.6-5.4,1.4c-1.5,0.6-3,1.3-4.6,1.4l0,0
		C25,9,23.5,8.3,22,7.7c-1.7-0.8-3.5-1.5-5.4-1.4c-3.8,0.3-6.8,2.8-8.4,6.9c-0.1,0.4-3.2,9.2,2.2,17.1c0,0,0,0.1,0,0.2
		C10.5,30.7,8.7,48.3,15.9,53.5z"/>
	<path class="st2" d="M32.4,10.5c-3,0-7.4-1.5-8-1.7c-0.1,0-0.2-0.2-0.1-0.3c0-0.1,0.2-0.2,0.3-0.1c2.4,0.8,8.9,2.7,10,1.1
		c0.1-0.1,0.2-0.1,0.3,0s0.1,0.2,0,0.3C34.5,10.3,33.6,10.5,32.4,10.5z"/>
</g>
</svg>
