<svg width="435" height="395" viewBox="0 0 435 395" fill="none" xmlns="http://www.w3.org/2000/svg">
<path d="M223.345 394.353C332.504 394.353 420.995 378.636 420.995 359.247C420.995 339.859 332.504 324.141 223.345 324.141C114.186 324.141 25.6948 339.859 25.6948 359.247C25.6948 378.636 114.186 394.353 223.345 394.353Z" fill="#157FEC"/>
<path opacity="0.5" d="M223.345 394.353C332.504 394.353 420.995 378.636 420.995 359.247C420.995 339.859 332.504 324.141 223.345 324.141C114.186 324.141 25.6948 339.859 25.6948 359.247C25.6948 378.636 114.186 394.353 223.345 394.353Z" fill="white"/>
<path d="M417.165 177.726C417.165 177.726 417.165 173.425 411.143 167.393C405.121 161.361 401.24 157.931 401.24 157.931C401.24 157.931 398.229 167.823 403.821 173.855C407.929 178.089 412.382 181.974 417.134 185.469L417.165 177.726Z" fill="#157FEC"/>
<path d="M408.419 204.599C408.419 204.599 408.419 200.298 402.397 194.276C396.376 188.254 392.505 184.803 392.505 184.803C392.505 184.803 389.432 194.706 395.085 200.728C399.192 204.963 403.645 208.848 408.399 212.341L408.419 204.599Z" fill="#157FEC"/>
<path d="M416.786 185.059C416.786 185.059 417.237 180.778 423.873 175.422C430.509 170.066 434.708 167.055 434.708 167.055C434.708 167.055 436.664 177.214 430.458 182.611C425.918 186.388 421.07 189.779 415.967 192.75L416.786 185.059Z" fill="#157FEC"/>
<path d="M406.227 216.796C406.227 216.796 407.129 212.587 414.277 207.958C421.425 203.329 425.941 200.789 425.941 200.789C425.941 200.789 426.812 211.102 420.083 215.823C415.168 219.1 409.989 221.964 404.599 224.384L406.227 216.796Z" fill="#157FEC"/>
<path d="M408.214 251.4C408.214 251.4 408.214 247.088 414.236 241.067C420.258 235.045 424.129 231.604 424.129 231.604C424.129 231.604 427.14 241.497 421.548 247.518C417.444 251.759 412.99 255.647 408.235 259.142L408.214 251.4Z" fill="#157FEC"/>
<path d="M408.112 259.838C408.112 259.838 408.716 255.578 403.616 248.758C398.516 241.937 395.167 237.984 395.167 237.984C395.167 237.984 390.774 247.355 395.454 254.114C398.924 258.894 402.788 263.374 407.006 267.509L408.112 259.838Z" fill="#157FEC"/>
<path d="M402.172 284.918C402.172 284.918 402.172 280.617 408.194 274.595C414.215 268.574 418.087 265.133 418.087 265.133C418.087 265.133 421.108 275.025 415.506 281.047C411.401 285.288 406.948 289.176 402.193 292.671L402.172 284.918Z" fill="#157FEC"/>
<path d="M406.166 307.571C406.166 307.571 405.07 303.403 409.371 296.05C413.673 288.697 416.54 284.386 416.54 284.386C416.54 284.386 421.958 293.193 418.076 300.444C415.166 305.583 411.833 310.471 408.112 315.057L406.166 307.571Z" fill="#157FEC"/>
<path d="M417.708 176.62C417.407 181.102 416.856 185.564 416.059 189.985C413.683 202.274 407.723 210.221 405.347 221.343C402.971 232.464 409.802 246.771 407.968 261.047C406.135 275.323 400.585 283.259 402.172 292.794C403.759 302.328 412.28 329.046 412.28 329.046" stroke="#263238" stroke-width="0.75" stroke-linecap="round" stroke-linejoin="round"/>
<path d="M416.724 187.916L423.217 182.929" stroke="#263238" stroke-width="0.75" stroke-linecap="round" stroke-linejoin="round"/>
<path d="M417.032 182.181L414.308 177.348" stroke="#263238" stroke-width="0.75" stroke-linecap="round" stroke-linejoin="round"/>
<path d="M405.705 220.83C405.705 220.83 411.143 216.734 416.724 212.638" stroke="#263238" stroke-width="0.75" stroke-linecap="round" stroke-linejoin="round"/>
<path d="M408.132 211.583C405.484 206.612 402.345 201.919 398.762 197.573" stroke="#263238" stroke-width="0.75" stroke-linecap="round" stroke-linejoin="round"/>
<path d="M408.419 257.514C411.523 251.795 415.442 246.558 420.053 241.968" stroke="#263238" stroke-width="0.75" stroke-linecap="round" stroke-linejoin="round"/>
<path d="M407.364 263.556C405.717 259.674 403.747 255.936 401.476 252.383C398.311 247.703 397.85 247.099 397.85 247.099" stroke="#263238" stroke-width="0.75" stroke-linecap="round" stroke-linejoin="round"/>
<path d="M402.172 292.783C403.546 289.361 405.183 286.05 407.067 282.88C408.949 279.943 411.069 277.165 413.406 274.575" stroke="#263238" stroke-width="0.75" stroke-linecap="round" stroke-linejoin="round"/>
<path d="M408.153 315.057C407.839 311.794 408.401 308.507 409.781 305.533C412.044 301.15 414.615 295.415 415.67 293.152" stroke="#263238" stroke-width="0.75" stroke-linecap="round" stroke-linejoin="round"/>
<path d="M377.717 235.209C377.717 235.209 377.246 232.515 380.369 228.04C383.493 223.565 385.551 221.025 385.551 221.025C385.551 221.025 388.511 226.914 385.664 231.266C383.541 234.37 381.164 237.292 378.557 240.002L377.717 235.209Z" fill="#157FEC"/>
<path d="M386.114 251.123C386.114 251.123 385.654 248.43 388.777 243.955C391.901 239.479 393.949 236.939 393.949 236.939C393.949 236.939 396.919 242.818 394.061 247.18C391.94 250.282 389.563 253.201 386.954 255.906L386.114 251.123Z" fill="#157FEC"/>
<path d="M378.751 239.766C378.751 239.766 378.003 237.134 373.262 234.492C368.52 231.85 365.55 230.396 365.55 230.396C365.55 230.396 365.438 236.981 369.913 239.684C373.169 241.564 376.578 243.168 380.103 244.477L378.751 239.766Z" fill="#157FEC"/>
<path d="M388.818 258.517C388.818 258.517 387.794 255.977 382.806 253.857C377.819 251.738 374.716 250.621 374.716 250.621C374.716 250.621 375.29 257.176 380.021 259.408C383.459 260.93 387.018 262.164 390.661 263.095L388.818 258.517Z" fill="#157FEC"/>
<path d="M391.327 280.433C391.327 280.433 390.866 277.739 386.432 274.616C381.997 271.492 379.191 269.751 379.191 269.751C379.191 269.751 378.382 276.285 382.54 279.46C385.583 281.667 388.803 283.619 392.167 285.297L391.327 280.433Z" fill="#157FEC"/>
<path d="M392.31 285.717C392.31 285.717 391.46 283.116 393.928 278.282C396.396 273.448 398.024 270.612 398.024 270.612C398.024 270.612 401.793 276.009 399.591 280.75C397.936 284.125 396 287.356 393.805 290.407L392.31 285.717Z" fill="#157FEC"/>
<path d="M399.868 307.448C399.868 307.448 400.185 304.724 404.425 301.304C408.665 297.883 411.368 296.04 411.368 296.04C411.368 296.04 412.556 302.512 408.583 305.912C405.675 308.297 402.572 310.431 399.305 312.292L399.868 307.448Z" fill="#157FEC"/>
<path d="M398.752 300.771C398.752 300.771 398.281 298.078 393.856 294.954C389.432 291.831 386.616 290.09 386.616 290.09C386.616 290.09 385.807 296.624 389.965 299.788C393.004 302.003 396.225 303.959 399.591 305.636L398.752 300.771Z" fill="#157FEC"/>
<path d="M398.69 315.447C398.69 315.447 398.926 312.712 395.423 308.565C391.921 304.417 389.658 302.031 389.658 302.031C389.658 302.031 387.22 308.176 390.446 312.272C392.826 315.181 395.447 317.884 398.281 320.352L398.69 315.447Z" fill="#157FEC"/>
<path d="M377.256 234.584C377.935 237.357 378.763 240.092 379.734 242.777C382.571 250.232 387.159 254.564 389.862 261.282C392.566 268 389.862 277.668 392.525 286.465C395.188 295.262 399.571 299.583 399.612 305.728C399.653 311.872 397.226 328.954 397.226 328.954" stroke="#263238" stroke-width="0.75" stroke-linecap="round" stroke-linejoin="round"/>
<path d="M379.099 241.558L374.481 239.131" stroke="#263238" stroke-width="0.75" stroke-linecap="round" stroke-linejoin="round"/>
<path d="M378.28 237.984L379.468 234.666" stroke="#263238" stroke-width="0.75" stroke-linecap="round" stroke-linejoin="round"/>
<path d="M389.586 260.995C389.586 260.995 385.725 259.029 381.782 257.083" stroke="#263238" stroke-width="0.75" stroke-linecap="round" stroke-linejoin="round"/>
<path d="M386.923 255.127C388.152 251.853 389.652 248.688 391.409 245.665" stroke="#263238" stroke-width="0.75" stroke-linecap="round" stroke-linejoin="round"/>
<path d="M391.829 284.294C389.259 281.046 386.234 278.187 382.847 275.804" stroke="#263238" stroke-width="0.75" stroke-linecap="round" stroke-linejoin="round"/>
<path d="M393.181 287.991C393.791 285.376 394.62 282.817 395.659 280.341C397.134 277.064 397.359 276.644 397.359 276.644" stroke="#263238" stroke-width="0.75" stroke-linecap="round" stroke-linejoin="round"/>
<path d="M399.397 310.398C400.898 308.548 402.561 306.835 404.364 305.277C405.509 304.429 406.584 303.491 407.579 302.471" stroke="#263238" stroke-width="0.75" stroke-linecap="round" stroke-linejoin="round"/>
<path d="M399.612 305.728C398.377 303.733 396.99 301.836 395.464 300.054C393.965 298.419 392.335 296.908 390.59 295.538" stroke="#263238" stroke-width="0.75" stroke-linecap="round" stroke-linejoin="round"/>
<path d="M398.28 320.352C398.124 318.272 397.417 316.272 396.232 314.555C394.338 312.057 392.136 308.739 391.194 307.387" stroke="#263238" stroke-width="0.75" stroke-linecap="round" stroke-linejoin="round"/>
<path d="M389.617 326.742H418.998V341.93C418.998 342.606 418.729 343.254 418.251 343.733C417.773 344.211 417.124 344.479 416.448 344.479H392.167C391.49 344.479 390.842 344.211 390.364 343.733C389.885 343.254 389.617 342.606 389.617 341.93V326.742Z" fill="#263238" stroke="#263238" stroke-linecap="round" stroke-linejoin="round"/>
<path d="M43.8826 198.034C43.8826 198.034 43.8826 194.368 38.7622 189.247C33.6417 184.127 30.3236 181.198 30.3236 181.198C30.3236 181.198 27.7634 189.616 32.5152 194.737C36.0172 198.339 39.8126 201.645 43.8622 204.619L43.8826 198.034Z" fill="#157FEC"/>
<path d="M36.4682 220.882C36.4682 220.882 36.4682 217.226 31.3477 212.105C26.2272 206.985 22.9092 204.015 22.9092 204.015C22.9092 204.015 20.3489 212.423 25.1007 217.553C28.6062 221.17 32.4087 224.486 36.4682 227.467V220.882Z" fill="#157FEC"/>
<path d="M43.5651 204.261C43.5651 204.261 43.944 200.625 49.5868 196.068C55.2296 191.511 58.8037 188.961 58.8037 188.961C58.8037 188.961 60.4627 197.594 55.1886 202.192C51.3382 205.402 47.2277 208.286 42.8995 210.815L43.5651 204.261Z" fill="#157FEC"/>
<path d="M34.5839 231.256C34.5839 231.256 35.3519 227.671 41.4248 223.739C47.4977 219.806 51.3483 217.594 51.3483 217.594C51.3483 217.594 52.0856 226.35 46.3609 230.365C42.185 233.157 37.7831 235.596 33.2013 237.656L34.5839 231.256Z" fill="#157FEC"/>
<path d="M36.2736 260.678C36.2736 260.678 36.2736 257.022 41.3941 251.891C46.5146 246.761 49.7814 243.842 49.7814 243.842C49.7814 243.842 52.3417 252.26 47.5796 257.38C44.0857 260.988 40.2933 264.294 36.2429 267.263L36.2736 260.678Z" fill="#157FEC"/>
<path d="M36.1815 267.857C36.1815 267.857 36.7038 264.242 32.3616 258.435C28.0194 252.629 25.193 249.27 25.193 249.27C25.193 249.27 21.4653 257.237 25.4387 262.993C28.3923 267.056 31.6809 270.865 35.27 274.38L36.1815 267.857Z" fill="#157FEC"/>
<path d="M31.1326 289.148C31.1326 289.148 31.1326 285.492 36.2531 280.361C41.3736 275.23 44.6609 272.312 44.6609 272.312C44.6609 272.312 47.2212 280.73 42.4694 285.85C38.9674 289.453 35.172 292.759 31.1224 295.733L31.1326 289.148Z" fill="#157FEC"/>
<path d="M34.5532 308.472C34.5532 308.472 33.6212 304.939 37.2875 298.682C40.9537 292.425 43.4321 288.759 43.4321 288.759C43.4321 288.759 47.9995 296.183 44.661 302.389C42.1874 306.758 39.3545 310.913 36.1917 314.812L34.5532 308.472Z" fill="#157FEC"/>
<path d="M44.3435 197.092C44.0884 200.904 43.62 204.699 42.9405 208.459C40.8923 218.915 35.8537 225.664 33.8363 235.086C31.8188 244.508 37.6254 256.715 36.0688 268.881C34.5122 281.047 29.7808 287.765 31.1327 295.866C32.4845 303.966 39.735 326.701 39.735 326.701" stroke="#263238" stroke-width="0.75" stroke-linecap="round" stroke-linejoin="round"/>
<path d="M43.514 206.698L49.0338 202.458" stroke="#263238" stroke-width="0.75" stroke-linecap="round" stroke-linejoin="round"/>
<path d="M43.7699 201.813L41.4555 197.707" stroke="#263238" stroke-width="0.75" stroke-linecap="round" stroke-linejoin="round"/>
<path d="M34.1435 234.738C34.1435 234.738 38.7622 231.266 43.514 227.805" stroke="#263238" stroke-width="0.75" stroke-linecap="round" stroke-linejoin="round"/>
<path d="M36.2019 226.821C33.9626 222.598 31.3072 218.608 28.2754 214.911" stroke="#263238" stroke-width="0.75" stroke-linecap="round" stroke-linejoin="round"/>
<path d="M36.4682 265.88C39.1086 261.018 42.4409 256.564 46.361 252.659" stroke="#263238" stroke-width="0.75" stroke-linecap="round" stroke-linejoin="round"/>
<path d="M35.5465 271.021C34.1473 267.72 32.4757 264.542 30.5489 261.518C27.8453 257.534 27.4767 257.022 27.4767 257.022" stroke="#263238" stroke-width="0.75" stroke-linecap="round" stroke-linejoin="round"/>
<path d="M31.1327 295.866C32.3049 292.959 33.6948 290.145 35.2905 287.448C36.8937 284.952 38.6988 282.592 40.6875 280.392" stroke="#263238" stroke-width="0.75" stroke-linecap="round" stroke-linejoin="round"/>
<path d="M36.2224 314.811C35.9543 312.036 36.4316 309.24 37.6049 306.711C39.5302 302.983 41.7013 298.108 42.6128 296.183" stroke="#263238" stroke-width="0.75" stroke-linecap="round" stroke-linejoin="round"/>
<path d="M10.3333 246.914C10.3333 246.914 9.94417 244.62 12.5966 240.851C15.249 237.083 17.0002 234.891 17.0002 234.891C17.0002 234.891 19.5194 239.889 17.0923 243.617C15.2891 246.256 13.268 248.739 11.0502 251.041L10.3333 246.914Z" fill="#157FEC"/>
<path d="M17.4815 260.442C17.4815 260.442 17.0821 258.148 19.7448 254.38C22.4074 250.611 24.1484 248.409 24.1484 248.409C24.1484 248.409 26.6676 253.417 24.2405 257.145C22.4373 259.784 20.4162 262.268 18.1984 264.57L17.4815 260.442Z" fill="#157FEC"/>
<path d="M11.214 250.785C11.214 250.785 10.5791 248.553 6.55441 246.31C2.52972 244.067 0.000206906 242.849 0.000206906 242.849C0.000206906 242.849 -0.102202 248.44 3.69719 250.755C6.46621 252.358 9.3642 253.729 12.361 254.851L11.214 250.785Z" fill="#157FEC"/>
<path d="M19.7755 266.741C19.7755 266.741 18.905 264.58 14.655 262.767C10.405 260.955 7.79358 260.012 7.79358 260.012C7.79358 260.012 8.28514 265.594 12.3098 267.488C15.2316 268.786 18.2563 269.837 21.3526 270.632L19.7755 266.741Z" fill="#157FEC"/>
<path d="M21.9158 285.369C21.9158 285.369 21.5164 283.075 17.7477 280.423C13.9791 277.77 11.6032 276.326 11.6032 276.326C11.6032 276.326 10.8658 281.846 14.4399 284.539C17.0288 286.419 19.7691 288.08 22.6327 289.506L21.9158 285.369Z" fill="#157FEC"/>
<path d="M22.7453 289.865C22.7453 289.865 22.0285 287.653 24.1176 283.546C26.2068 279.439 27.6303 277.023 27.6303 277.023C27.6303 277.023 30.8357 281.611 28.9616 285.645C27.5554 288.509 25.911 291.25 24.0459 293.838L22.7453 289.865Z" fill="#157FEC"/>
<path d="M29.1767 308.38C29.1767 308.38 29.4429 306.066 33.058 303.198C36.673 300.331 38.9568 298.723 38.9568 298.723C38.9568 298.723 39.9809 304.223 36.5911 307.121C34.1157 309.154 31.4746 310.976 28.6953 312.569L29.1767 308.38Z" fill="#157FEC"/>
<path d="M28.2754 302.666C28.2754 302.666 27.876 300.372 24.1074 297.719C20.3387 295.067 17.9628 293.623 17.9628 293.623C17.9628 293.623 17.2664 299.184 20.8098 301.877C23.3976 303.758 26.138 305.42 29.0026 306.844L28.2754 302.666Z" fill="#157FEC"/>
<path d="M28.173 315.139C28.173 315.139 28.3676 312.825 25.3977 309.292C22.4278 305.759 20.4923 303.741 20.4923 303.741C20.4923 303.741 18.4441 308.933 21.158 312.446C23.1851 314.918 25.4152 317.217 27.8248 319.318L28.173 315.139Z" fill="#157FEC"/>
<path d="M9.94418 246.382C10.5235 248.742 11.2277 251.07 12.0538 253.356C14.4604 259.695 18.3725 263.371 20.6664 269.086C22.9604 274.8 20.6664 283.054 22.9297 290.5C25.1929 297.945 28.9206 301.662 28.9514 306.885C28.9821 312.108 26.9032 326.64 26.9032 326.64" stroke="#263238" stroke-width="0.75" stroke-linecap="round" stroke-linejoin="round"/>
<path d="M11.511 252.311L7.58871 250.253" stroke="#263238" stroke-width="0.75" stroke-linecap="round" stroke-linejoin="round"/>
<path d="M10.8249 249.28L11.8285 246.453" stroke="#263238" stroke-width="0.75" stroke-linecap="round" stroke-linejoin="round"/>
<path d="M20.4309 268.84C20.4309 268.84 17.1538 267.171 13.7948 265.512" stroke="#263238" stroke-width="0.75" stroke-linecap="round" stroke-linejoin="round"/>
<path d="M18.1676 263.853C19.2167 261.069 20.4943 258.376 21.9875 255.803" stroke="#263238" stroke-width="0.75" stroke-linecap="round" stroke-linejoin="round"/>
<path d="M22.3664 288.656C20.1783 285.911 17.6052 283.497 14.7267 281.488" stroke="#263238" stroke-width="0.75" stroke-linecap="round" stroke-linejoin="round"/>
<path d="M23.4827 291.78C24.0051 289.557 24.7107 287.382 25.5923 285.277C26.852 282.491 27.0363 282.122 27.0363 282.122" stroke="#263238" stroke-width="0.75" stroke-linecap="round" stroke-linejoin="round"/>
<path d="M28.7773 310.848C30.051 309.268 31.463 307.805 32.9966 306.475C33.9705 305.755 34.8849 304.957 35.7309 304.089" stroke="#263238" stroke-width="0.75" stroke-linecap="round" stroke-linejoin="round"/>
<path d="M28.9513 306.885C27.9031 305.189 26.7253 303.576 25.4284 302.062C24.1708 300.668 22.8007 299.38 21.3321 298.211" stroke="#263238" stroke-width="0.75" stroke-linecap="round" stroke-linejoin="round"/>
<path d="M27.8249 319.318C27.6869 317.547 27.0827 315.844 26.0737 314.382C24.4658 312.262 22.561 309.435 21.7929 308.329" stroke="#263238" stroke-width="0.75" stroke-linecap="round" stroke-linejoin="round"/>
<path d="M18.8947 326.742H48.276V341.93C48.276 342.268 48.2088 342.603 48.078 342.915C47.9473 343.227 47.7558 343.51 47.5147 343.747C47.2736 343.985 46.9876 344.172 46.6735 344.297C46.3593 344.423 46.0233 344.485 45.685 344.479H21.4447C20.7684 344.479 20.1198 344.211 19.6416 343.733C19.1634 343.254 18.8947 342.606 18.8947 341.93V326.742Z" fill="#263238" stroke="#263238" stroke-linecap="round" stroke-linejoin="round"/>
<path d="M298.78 136.425C295.195 140.887 292.761 146.162 291.693 151.786C289.809 161.341 285.169 179.293 285.753 185.52C286.337 191.746 287.801 195.218 293.424 196.232C299.046 197.246 302.251 192.32 303.419 188.121C304.159 185.358 304.737 182.554 305.15 179.723L306.307 156.907C306.307 156.907 304.259 143.194 303.286 140.306C302.313 137.418 298.78 136.425 298.78 136.425Z" fill="#157FEC" stroke="#263238" stroke-linecap="round" stroke-linejoin="round"/>
<path d="M374.092 131.857C374.092 131.857 376.14 131.407 378.086 138.514C380.031 145.621 382.376 155.821 386.217 168.397C390.057 180.973 390.805 185.12 390.508 187.926C390.211 190.732 387.999 193.846 380.267 193.846C372.535 193.846 369.002 190.886 366.954 184.229C364.905 177.573 365.202 157.009 365.059 154.346C364.916 151.684 371.716 130.526 374.092 131.857Z" fill="#157FEC" stroke="#263238" stroke-linecap="round" stroke-linejoin="round"/>
<path d="M321.269 352.754C321.269 352.754 316.24 358.08 313.281 361.49C310.321 364.9 309.287 366.958 314.162 369.027C319.036 371.096 326.594 368.003 328.816 364.593C331.039 361.183 335.77 357.342 335.77 357.342C335.77 357.342 338.279 354.536 335.022 350.542C331.766 346.548 322.743 351.126 321.269 352.754Z" fill="white" stroke="#263238" stroke-linecap="round" stroke-linejoin="round"/>
<path d="M351.449 357.199C351.449 357.199 356.477 357.936 359.14 360.271C361.802 362.606 371.132 367.819 377.338 365.299C383.544 362.78 379.56 358.643 376.16 355.683C374.251 353.99 372.167 352.503 369.944 351.249C369.944 351.249 360.031 350.511 355.607 352.724C351.183 354.936 351.449 357.199 351.449 357.199Z" fill="white" stroke="#263238" stroke-linecap="round" stroke-linejoin="round"/>
<path d="M315.493 288.39C315.493 288.39 317.869 306.148 316.681 311.473C315.493 316.798 312.093 319.912 314.633 325.094C316.513 329.1 317.889 333.324 318.729 337.669C319.026 339.441 317.398 339.881 318.729 341.766C319.699 342.981 320.496 344.325 321.095 345.76C321.095 346.21 319.323 348.719 319.323 349.313C319.323 349.907 320.214 353.604 320.214 353.604C320.214 353.604 324.945 352.58 328.345 353.901C330.808 354.962 333.142 356.302 335.299 357.895C335.299 357.895 338.371 356.707 339.446 354.936C340.026 354.007 340.377 352.954 340.471 351.863C340.614 351.269 342.099 348.156 341.955 345.79C341.812 343.425 340.174 338.396 340.174 335.437C340.174 332.477 342.396 329.221 342.396 324.489C342.396 319.758 340.174 289.424 340.174 289.424L342.222 288.677C342.222 288.677 345.478 306.732 345.478 315.17C345.478 323.609 342.969 334.106 344.598 336.174C346.226 338.243 348.141 340.025 348.141 340.465C348.141 340.906 346.216 344.162 346.666 345.79C347.369 347.929 347.96 350.103 348.438 352.304C348.438 353.195 350.066 356.595 351.398 357.189C352.729 357.783 353.446 356.441 361.311 354.823C369.176 353.205 373.6 353.635 372.852 351.269C372.105 348.904 371.378 345.79 370.487 345.196C369.596 344.602 370.784 344.172 370.487 341.95C370.19 339.728 368.561 337.362 367.087 333.809C365.612 330.255 367.67 326.415 368.264 322.707C368.858 319 367.967 313.491 366.493 307.469C365.018 301.447 366.339 286.608 366.339 286.608L367.087 280.842C367.087 280.842 344.444 282.891 330.537 282.757L315.595 282.614C315.595 282.614 314.612 283.659 315.493 288.39Z" fill="#263238" stroke="#263238" stroke-linecap="round" stroke-linejoin="round"/>
<path d="M372.904 226.545C372.904 226.545 374.952 253.479 377.635 267.509C379.179 275.427 380.158 283.446 380.564 291.503H369.801C369.35 291.503 370.538 241.64 370.825 237.226C371.215 233.614 371.91 230.04 372.904 226.545Z" fill="#157FEC" stroke="#263238" stroke-linecap="round" stroke-linejoin="round"/>
<path d="M328.335 116.967C328.335 116.967 315.759 125.395 309.256 128.355C302.753 131.315 299.189 135.165 298.749 136.548C298.309 137.93 305.846 159.18 305.846 159.18C305.846 159.18 305.406 229.464 305.406 241.302C305.406 253.141 301.709 288.789 302.149 288.789C302.589 288.789 314.438 296.491 330.701 296.931C346.963 297.371 352.207 295.006 357.327 295.006C362.448 295.006 372.689 295.006 372.863 293.531C373.037 292.056 373.16 259.347 373.303 244.108C373.446 228.87 373.6 218.066 373.303 215.557C373.006 213.047 368.869 158.883 368.869 158.883C368.869 158.883 371.941 149.861 373.754 142.61C375.566 135.36 375.525 134.469 373.303 131.222C371.081 127.976 354.408 119.128 351.449 117.991C347.812 116.718 344.025 115.923 340.184 115.625C337.398 115.431 328.335 116.967 328.335 116.967Z" fill="#157FEC" stroke="#263238" stroke-linecap="round" stroke-linejoin="round"/>
<path d="M300.551 177.133C300.551 177.133 302.477 181.567 304.842 183.492C307.208 185.417 312.687 186.308 313.865 189.268C315.042 192.228 313.865 194.44 312.533 197.993C311.202 201.547 311.95 207.466 307.065 208.234C302.18 209.002 300.705 207.21 296.701 204.384C292.697 201.557 290.198 201.127 287.832 196.836C285.466 192.545 284.76 186.595 286.808 183.38" fill="#157FEC"/>
<path d="M300.551 177.133C300.551 177.133 302.477 181.567 304.842 183.492C307.208 185.417 312.687 186.308 313.865 189.268C315.042 192.228 313.865 194.44 312.533 197.993C311.202 201.547 311.95 207.466 307.065 208.234C302.18 209.002 300.705 207.21 296.701 204.384C292.697 201.557 290.198 201.127 287.832 196.836C285.466 192.545 284.76 186.595 286.808 183.38" stroke="#263238" stroke-linecap="round" stroke-linejoin="round"/>
<path d="M327.782 111.14L327.311 123.572C327.311 123.572 326.133 125.344 333.23 125.784C337.792 126.024 342.366 125.679 346.84 124.76L345.663 111.304C345.663 111.304 338.259 114.376 333.968 112.932C331.955 112.175 329.887 111.576 327.782 111.14Z" fill="white" stroke="#263238" stroke-linecap="round" stroke-linejoin="round"/>
<path d="M324.966 108.037C324.966 108.037 323.942 122.374 323.194 126.675C322.447 130.977 322.6 133.629 324.218 134.663C325.836 135.698 335.309 139.405 340.194 139.108C345.079 138.811 352.483 134.366 353.067 133.035C353.651 131.704 348.643 110.822 348.643 110.822L347.895 111.713C347.895 111.713 349.227 122.661 348.786 122.978C348.346 123.296 331.182 122.087 328.069 121.954C324.956 121.821 325.857 121.657 325.857 121.657L325.703 109.081L324.966 108.037Z" fill="white" stroke="#263238" stroke-linecap="round" stroke-linejoin="round"/>
<path d="M324.495 125.098C324.495 125.098 340.665 127.485 350.363 125.61" stroke="#263238" stroke-width="0.5" stroke-miterlimit="10"/>
<path d="M323.819 128.846C323.819 128.846 335.084 133.608 350.363 129.348" stroke="#263238" stroke-width="0.5" stroke-miterlimit="10"/>
<path d="M325.007 133.27C325.007 133.27 335.729 139.057 350.363 132.922" stroke="#263238" stroke-width="0.5" stroke-miterlimit="10"/>
<path d="M351.162 92.9417C351.531 88.3947 351.838 83.7248 350.711 81.4001C348.94 77.7032 343.604 73.4122 335.913 73.7092C328.222 74.0062 321.709 76.9658 321.863 86.4284C321.863 86.4284 322.19 89.2447 322.569 92.6959C321.865 94.2029 321.619 95.8839 321.863 97.5296C322.101 99.1087 322.655 100.624 323.491 101.984C323.563 102.865 323.614 103.623 323.634 104.186C323.778 108.18 326.44 112.912 328.816 114.54C331.192 116.168 335.616 118.687 338.433 118.687C341.249 118.687 346.267 116.025 348.674 112.174C350.537 109.102 350.722 107.054 350.722 103.439H350.865C351.289 101.54 351.539 99.6067 351.613 97.6627C351.673 96.076 351.522 94.4883 351.162 92.9417Z" fill="white" stroke="#263238" stroke-linecap="round" stroke-linejoin="round"/>
<path d="M323.215 93.8326C323.215 93.8326 323.655 97.5296 324.392 97.376C325.13 97.2224 326.021 91.9073 326.021 91.9073L323.215 93.8326Z" fill="#263238" stroke="#263238" stroke-linecap="round" stroke-linejoin="round"/>
<path d="M348.346 93.4128C348.346 93.4128 348.346 97.5604 349.37 98.1544C350.394 98.7484 351.142 94.6008 351.142 94.6008C350.303 94.0143 349.35 93.6096 348.346 93.4128Z" fill="#263238" stroke="#263238" stroke-linecap="round" stroke-linejoin="round"/>
<path d="M350.711 81.4001C348.94 77.7032 343.604 73.4122 335.913 73.7092C328.222 74.0062 321.709 76.9658 321.863 86.4284C321.863 86.4284 322.19 89.2447 322.569 92.6959C322.103 93.6965 321.835 94.7782 321.781 95.8808C324.659 93.5766 330.045 90.279 336.804 90.873C342.064 91.4724 347.119 93.2545 351.592 96.0856C351.545 95.0267 351.401 93.9743 351.162 92.9417C351.531 88.3947 351.889 83.7556 350.711 81.4001Z" fill="#157FEC" stroke="#263238" stroke-linecap="round" stroke-linejoin="round"/>
<path d="M334.879 96.485L333.988 101.81C333.988 101.81 332.36 101.954 332.964 102.988C333.568 104.022 336.661 105.21 338.146 104.77C339.631 104.33 341.105 102.845 340.952 102.251C340.906 102.073 340.814 101.911 340.684 101.781C340.554 101.651 340.392 101.559 340.214 101.513L338.289 96.0344" stroke="#263238" stroke-linecap="round" stroke-linejoin="round"/>
<path d="M333.251 107.443C336.092 108.056 339.041 107.954 341.833 107.146" stroke="#263238" stroke-linecap="round" stroke-linejoin="round"/>
<path d="M331.622 96.2701C331.622 97.0484 331.223 97.6731 330.731 97.6731C330.24 97.6731 329.851 97.0484 329.851 96.2701C329.851 95.4918 330.25 94.8671 330.731 94.8671C331.213 94.8671 331.622 95.461 331.622 96.2701Z" fill="#263238"/>
<path d="M342.867 96.1984C342.867 96.9767 342.468 97.6014 341.986 97.6014C341.505 97.6014 341.095 96.9767 341.095 96.1984C341.095 95.4201 341.495 94.7954 341.986 94.7954C342.478 94.7954 342.867 95.4611 342.867 96.1984Z" fill="#263238"/>
<path d="M328.222 94.1296C328.222 94.1296 329.246 91.6103 332.513 92.5013" stroke="#263238" stroke-linecap="round" stroke-linejoin="round"/>
<path d="M339.17 92.6446C339.17 92.6446 342.242 90.4223 344.495 94.2729" stroke="#263238" stroke-linecap="round" stroke-linejoin="round"/>
<path d="M311.202 195.628C311.202 195.628 320.234 197.676 322.303 197.256C325.015 196.75 327.498 195.402 329.4 193.405C332.073 190.743 334.285 188.52 334.285 190.743C334.294 191.62 334.129 192.49 333.798 193.302C333.468 194.114 332.979 194.853 332.36 195.474C331.336 196.662 329.4 197.993 328.96 199.919C328.519 201.844 329.113 203.319 331.479 204.209C333.845 205.1 341.239 206.422 341.239 208.306C341.239 210.19 340.645 214.676 337.982 216.15C335.319 217.625 328.816 216.591 328.816 216.591C328.816 216.591 334.142 219.55 333.107 220.298C332.073 221.046 328.96 220.001 327.485 218.67C326.01 217.338 325.437 217.185 321.115 214.082C316.794 210.979 313.127 207.272 311.059 206.094C309.938 205.569 308.902 204.878 307.986 204.046C306.798 203.022 306.358 200.973 307.239 198.577C307.539 197.867 307.984 197.228 308.544 196.699C309.105 196.17 309.769 195.763 310.495 195.505L311.202 195.628Z" fill="white" stroke="#263238" stroke-linecap="round" stroke-linejoin="round"/>
<path d="M381.485 178.761C381.485 178.761 370.835 180.809 369.801 181.567C368.766 182.324 369.801 185.417 369.801 185.417C369.801 185.417 360.768 189.708 357.368 192.074C353.968 194.439 357.071 199.181 357.225 199.765C357.225 199.765 359.887 208.5 364.322 211.46C368.756 214.42 373.344 213.375 377.788 208.644C382.233 203.912 385.039 197.379 387.108 195.177C389.176 192.975 391.399 190.886 390.661 185.96C389.924 181.034 386.073 180.481 386.073 180.481" fill="#157FEC"/>
<path d="M381.485 178.761C381.485 178.761 370.835 180.809 369.801 181.567C368.766 182.324 369.801 185.417 369.801 185.417C369.801 185.417 360.768 189.708 357.368 192.074C353.968 194.439 357.071 199.181 357.225 199.765C357.225 199.765 359.887 208.5 364.322 211.46C368.756 214.42 373.344 213.375 377.788 208.644C382.233 203.912 385.039 197.379 387.108 195.177C389.176 192.975 391.399 190.886 390.661 185.96C389.924 181.034 386.073 180.481 386.073 180.481" stroke="#263238" stroke-linecap="round" stroke-linejoin="round"/>
<path d="M359.734 198.29C359.734 198.29 352.934 200.062 351.008 200.215C349.083 200.369 348.786 200.656 347.608 199.765C346.431 198.874 340.942 195.668 338.392 192.668C335.842 189.667 333.947 189.114 334.244 190.743C334.541 192.371 333.947 193.549 335.729 194.737C337.511 195.925 339.272 199.181 339.272 200.512C339.272 201.844 339.129 202.284 335.432 203.585C331.735 204.885 323.296 206.544 324.167 207.579C325.037 208.613 326.83 208.91 328.755 208.767C330.68 208.623 338.668 207.435 339.252 207.876C339.445 208.073 339.589 208.312 339.673 208.575C339.757 208.838 339.778 209.117 339.736 209.389C339.693 209.662 339.587 209.92 339.427 210.145C339.266 210.369 339.056 210.553 338.812 210.682C337.48 211.573 332.749 211.573 329.933 211.87C327.116 212.167 326.973 212.894 328.161 213.498C330.068 214.21 332.097 214.54 334.131 214.471C336.497 214.471 339.252 214.235 338.074 214.973C336.896 215.71 335.258 215.864 332.298 216.304C329.339 216.744 328.304 215.423 328.755 216.601C329.206 217.779 332.749 217.789 337.183 217.625C341.22 217.419 345.139 216.2 348.581 214.082C351.541 212.3 362.335 209.637 363.083 209.053C363.83 208.47 364.998 205.049 364.26 200.912C363.523 196.775 359.734 198.29 359.734 198.29Z" fill="white" stroke="#263238" stroke-linecap="round" stroke-linejoin="round"/>
<path d="M371.429 180.973C374.312 178.587 377.435 176.507 380.748 174.767" stroke="#263238" stroke-linecap="round" stroke-linejoin="round"/>
<path d="M330.588 208.849C330.588 208.849 339.006 207.886 339.856 207.763C340.706 207.64 342.263 208.603 341.536 209.688C340.808 210.774 340.45 210.528 337.439 211.132C334.451 211.586 331.429 211.789 328.407 211.737" fill="white"/>
<path d="M330.588 208.849C330.588 208.849 339.006 207.886 339.856 207.763C340.706 207.64 342.263 208.603 341.536 209.688C340.808 210.774 340.45 210.528 337.439 211.132C334.451 211.586 331.429 211.789 328.407 211.737" stroke="#263238" stroke-linecap="round" stroke-linejoin="round"/>
<path d="M331.551 214.624C331.551 214.624 340.931 214.02 340.696 214.747C340.46 215.474 339.856 216.427 336.487 216.673C333.118 216.918 329.318 217.154 326.133 215.587" fill="white"/>
<path d="M331.551 214.624C331.551 214.624 340.931 214.02 340.696 214.747C340.46 215.474 339.856 216.427 336.487 216.673C333.118 216.918 329.318 217.154 326.133 215.587" stroke="#263238" stroke-linecap="round" stroke-linejoin="round"/>
<path d="M237.723 345.462C237.723 345.462 239.321 347.05 232.951 350.941C226.581 354.833 221.266 356.605 221.266 358.909C221.266 361.213 228.342 363.507 235.603 361.735C242.864 359.964 245.844 359.441 249.941 358.735C254.037 358.028 255.256 354.485 255.256 349.518C255.256 344.551 244.462 343.373 243.222 343.148C241.983 342.923 238.614 343.517 237.723 345.462Z" fill="white" stroke="#263238" stroke-linecap="round" stroke-linejoin="round"/>
<path d="M253.648 349.528C250.967 353.545 247.686 357.127 243.919 360.148C238.43 364.244 237.723 366.16 240.56 367.225C243.397 368.29 251.528 368.638 257.017 366.518C262.506 364.398 265.159 361.213 266.746 359.79C268.333 358.366 269.224 359.257 269.224 353.594C269.224 347.931 263.203 345.985 258.256 346.343C253.31 346.702 253.648 349.528 253.648 349.528Z" fill="white" stroke="#263238" stroke-linecap="round" stroke-linejoin="round"/>
<path d="M232.07 234.154C232.07 234.154 233.668 266.361 234.2 275.742C234.733 285.123 238.624 320.331 239.321 328.647C240.017 336.963 240.027 339.441 240.027 339.441C240.027 339.441 236.842 341.745 236.842 342.278C236.842 342.81 236.484 347.756 236.484 347.756C238.834 349.051 241.33 350.061 243.919 350.767C246.763 351.408 249.692 351.588 252.593 351.3C252.593 351.3 258.43 353.246 263.387 354.659C268.344 356.072 270.289 355.365 270.289 355.365C270.289 355.365 271.703 348.289 272.051 345.985C272.399 343.681 278.421 319.266 278.421 308.093C278.421 296.92 277.007 291.81 274.887 285.266C272.768 278.722 277.714 255.352 279.486 246.863C280.501 242.127 281.27 237.341 281.79 232.525C281.79 232.525 266.572 240.349 232.07 234.154Z" fill="#263238" stroke="#263238" stroke-linecap="round" stroke-linejoin="round"/>
<path d="M251.886 244.979C251.886 244.979 250.995 268.533 250.995 277.534C250.995 286.536 253.3 297.535 254.354 308.155C255.409 318.775 254.713 336.113 253.474 339.123C252.235 342.134 251.354 343.22 251.528 345.493C251.702 347.767 251.886 350.972 251.886 350.972" stroke="white" stroke-linecap="round" stroke-linejoin="round"/>
<path d="M249.05 107.975C249.05 107.975 248.026 104.79 246.387 106.03C244.748 107.269 245.865 109.573 247.278 111.877C248.691 114.181 250.278 114.704 250.463 113.464C250.647 112.225 249.05 107.975 249.05 107.975Z" fill="white" stroke="#263238" stroke-linecap="round" stroke-linejoin="round"/>
<path d="M249.05 109.399L247.278 104.278C247.278 104.278 239.853 101.267 242.157 93.8326C244.462 86.3976 262.158 79.6796 266.93 79.6796C271.703 79.6796 280.909 86.0494 282.507 93.4844C284.104 100.919 278.789 107.637 278.789 107.637C278.789 107.637 276.485 114.181 274.693 113.833C272.901 113.485 273.976 108.344 271.682 104.278C269.388 100.213 267.965 98.1337 265.486 99.1578C263.008 100.182 252.747 103.254 251.866 104.637C250.985 106.019 249.408 110.279 249.05 109.399Z" fill="#263238" stroke="#263238" stroke-linecap="round" stroke-linejoin="round"/>
<path d="M284.975 182.304L285.856 186.902L274.887 203.892L277.366 207.783C282.569 204.314 287.323 200.214 291.519 195.576C298.595 187.793 299.302 186.728 299.302 183.543C299.302 180.358 296.834 174.869 296.834 174.869C296.834 174.869 291.877 182.304 284.975 182.304Z" fill="white" stroke="#263238" stroke-linecap="round" stroke-linejoin="round"/>
<path d="M224.983 172.043C224.983 172.043 221.44 180.532 222.157 183.185C222.874 185.837 235.071 201.414 235.071 201.414L237.191 195.576C237.191 195.576 232.592 186.021 232.592 182.837C232.592 179.652 234.19 173.456 234.19 173.456L224.983 172.043Z" stroke="#263238" stroke-linecap="round" stroke-linejoin="round"/>
<path d="M256.31 129.922C256.31 129.922 241.092 135.759 238.256 136.65C235.419 137.541 233.473 138.063 233.299 138.944C233.125 139.825 224.635 161.597 223.058 164.608C221.481 167.619 219.341 170.978 219.341 170.978C221.402 172.267 223.528 173.449 225.71 174.521C227.937 175.494 230.247 176.262 232.613 176.815L233.637 189.032L223.191 235.035C223.191 235.035 244.072 240.872 258.01 240.35C266.885 240.047 275.659 238.376 284.022 235.393C286.685 234.502 290.751 232.915 290.751 232.915L277.437 182.837L278.462 175.402L279.168 182.662C279.168 182.662 286.245 184.25 290.31 183.185C294.376 182.12 299.527 178.064 299.527 178.064L286.429 137.193L262.015 130.464L256.31 129.922Z" fill="#157FEC" stroke="#263238" stroke-linecap="round" stroke-linejoin="round"/>
<path d="M273.505 133.578L262.148 130.454L256.31 129.922L251.057 131.97C250.954 134.755 250.821 139.497 250.821 145.181C250.821 154.397 251.845 162.529 254.539 160.931C257.232 159.334 269.9 142.18 272.051 137.377C272.632 136.15 273.118 134.879 273.505 133.578Z" fill="#157FEC" stroke="#263238" stroke-linecap="round" stroke-linejoin="round"/>
<path d="M278.605 175.402C278.246 175.053 276.659 159.825 276.659 159.825" stroke="#263238" stroke-linecap="round" stroke-linejoin="round"/>
<path d="M232.592 176.815C232.592 176.815 231.353 170.803 231.712 168.499C232.07 166.195 234.538 152.574 234.538 152.574" stroke="#263238" stroke-linecap="round" stroke-linejoin="round"/>
<path d="M238.614 202.305C238.614 202.305 230.473 204.957 230.473 205.489C230.473 206.022 230.288 208.49 230.288 208.49L238.614 204.599V202.305Z" stroke="#263238" stroke-linecap="round" stroke-linejoin="round"/>
<path d="M260.202 203.544L259.844 205.838L277.54 210.436L278.421 208.674L260.202 203.544Z" stroke="#263238" stroke-linecap="round" stroke-linejoin="round"/>
<path d="M266.039 168.356C265.798 168.356 265.566 168.26 265.395 168.089C265.224 167.918 265.128 167.686 265.128 167.444C265.128 164.372 266.654 156.958 268.139 149.789C269.316 144.085 270.433 138.688 270.433 136.998C270.478 136.067 270.325 135.137 269.982 134.269C269.639 133.402 269.116 132.618 268.446 131.97C266.326 130.003 262.557 129.205 257.253 129.594C246.182 130.413 245.373 155.196 245.363 155.432C245.358 155.67 245.259 155.896 245.089 156.063C244.918 156.23 244.69 156.323 244.451 156.323C244.332 156.319 244.214 156.291 244.105 156.242C243.996 156.192 243.898 156.122 243.816 156.034C243.734 155.947 243.67 155.844 243.628 155.732C243.586 155.62 243.567 155.5 243.571 155.381C243.571 154.295 244.441 128.754 257.15 127.73C262.988 127.31 267.217 128.263 269.716 130.597C270.567 131.417 271.236 132.407 271.679 133.503C272.122 134.599 272.329 135.776 272.286 136.957C272.286 138.831 271.211 144.064 269.962 150.117C268.559 156.865 266.982 164.515 266.982 167.403C266.987 167.529 266.967 167.655 266.922 167.772C266.877 167.89 266.807 167.996 266.719 168.086C266.63 168.175 266.524 168.246 266.407 168.292C266.29 168.338 266.165 168.36 266.039 168.356Z" fill="#263238" stroke="#263238" stroke-linecap="round" stroke-linejoin="round"/>
<path d="M254.354 124.442C254.354 124.442 254.354 129.563 254.18 130.587C254.006 131.611 254.18 136.076 254.18 142.098C254.18 148.12 255.204 152.175 256.659 150.762C258.113 149.348 267.453 136.783 267.985 134.305C268.298 132.912 268.476 131.492 268.518 130.065L269.224 122.978C269.224 122.978 258.256 126.163 253.648 124.75" fill="white"/>
<path d="M254.354 124.442C254.354 124.442 254.354 129.563 254.18 130.587C254.006 131.611 254.18 136.076 254.18 142.098C254.18 148.12 255.204 152.175 256.659 150.762C258.113 149.348 267.453 136.783 267.985 134.305C268.298 132.912 268.476 131.492 268.518 130.065L269.224 122.978C269.224 122.978 258.256 126.163 253.648 124.75" stroke="#263238" stroke-linecap="round" stroke-linejoin="round"/>
<path d="M272.583 113.823C273.505 119.97 273.742 126.2 273.29 132.4C272.583 143.194 271.303 148.253 268.169 149.809C265.036 151.366 269.081 153.127 273.853 153.301C278.625 153.476 285.712 152.769 286.951 138.616C288.19 124.463 277.929 115.256 277.038 113.485C276.81 113.073 276.469 112.736 276.055 112.513C275.641 112.289 275.171 112.19 274.702 112.225C274.233 112.261 273.784 112.43 273.409 112.713C273.033 112.997 272.747 113.382 272.583 113.823Z" fill="#263238" stroke="#263238" stroke-linecap="round" stroke-linejoin="round"/>
<path d="M238.082 167.823H238.01C237.886 167.816 237.764 167.783 237.654 167.727C237.543 167.67 237.445 167.591 237.366 167.495C237.287 167.399 237.229 167.287 237.195 167.168C237.161 167.048 237.153 166.922 237.17 166.799C237.17 166.297 238.194 154.449 244.451 154.449C250.709 154.449 250.852 165.847 250.852 166.338C250.852 166.58 250.756 166.812 250.585 166.983C250.414 167.154 250.182 167.25 249.941 167.25C249.699 167.25 249.467 167.154 249.296 166.983C249.125 166.812 249.029 166.58 249.029 166.338C249.029 166.236 248.896 156.282 244.462 156.282C240.652 156.282 239.229 163.973 239.003 166.943C238.993 167.18 238.891 167.404 238.719 167.568C238.548 167.732 238.319 167.824 238.082 167.823Z" fill="#263238"/>
<path d="M238.082 166.205C238.082 166.205 238.082 175.053 238.43 176.815C238.778 178.576 243.212 182.304 248.517 184.608" stroke="#263238" stroke-width="2" stroke-linecap="round" stroke-linejoin="round"/>
<path d="M249.582 165.099C249.582 165.099 249.93 173.947 248.169 177.839C246.407 181.73 241.092 183.328 238.788 184.209" stroke="#263238" stroke-width="2" stroke-linecap="round" stroke-linejoin="round"/>
<path d="M250.995 184.956C250.963 184.556 250.782 184.182 250.486 183.91C250.191 183.638 249.804 183.486 249.403 183.486C249.001 183.486 248.614 183.638 248.319 183.91C248.024 184.182 247.843 184.556 247.81 184.956C247.793 185.176 247.821 185.397 247.893 185.606C247.965 185.814 248.079 186.005 248.229 186.168C248.378 186.33 248.56 186.459 248.762 186.547C248.964 186.636 249.182 186.682 249.403 186.682C249.623 186.682 249.842 186.636 250.044 186.547C250.246 186.459 250.427 186.33 250.577 186.168C250.726 186.005 250.841 185.814 250.913 185.606C250.985 185.397 251.013 185.176 250.995 184.956Z" fill="white" stroke="#263238" stroke-linecap="round" stroke-linejoin="round"/>
<path d="M240.027 184.608C240.029 184.292 239.937 183.982 239.763 183.718C239.589 183.454 239.34 183.247 239.048 183.125C238.756 183.002 238.435 182.969 238.124 183.03C237.814 183.09 237.528 183.242 237.304 183.465C237.079 183.688 236.926 183.972 236.864 184.283C236.801 184.593 236.832 184.914 236.953 185.207C237.073 185.499 237.278 185.75 237.541 185.926C237.804 186.102 238.113 186.196 238.43 186.196C238.852 186.196 239.256 186.029 239.556 185.731C239.855 185.434 240.025 185.03 240.027 184.608Z" fill="white" stroke="#263238" stroke-linecap="round" stroke-linejoin="round"/>
<path d="M271.344 170.803C271.346 169.717 271.026 168.654 270.423 167.75C269.821 166.846 268.964 166.14 267.96 165.724C266.957 165.307 265.852 165.197 264.787 165.409C263.721 165.62 262.742 166.143 261.974 166.912C261.205 167.68 260.682 168.659 260.471 169.725C260.259 170.79 260.369 171.895 260.786 172.898C261.202 173.902 261.907 174.759 262.812 175.361C263.716 175.964 264.779 176.284 265.865 176.282C267.317 176.28 268.709 175.701 269.736 174.675C270.763 173.648 271.341 172.256 271.344 170.803Z" fill="white" stroke="#263238" stroke-linecap="round" stroke-linejoin="round"/>
<path d="M268.866 170.803C268.866 170.208 268.689 169.625 268.358 169.13C268.026 168.634 267.556 168.248 267.005 168.021C266.454 167.793 265.848 167.734 265.264 167.851C264.679 167.968 264.143 168.256 263.722 168.678C263.302 169.1 263.016 169.638 262.901 170.222C262.786 170.807 262.847 171.413 263.076 171.963C263.306 172.513 263.693 172.982 264.19 173.312C264.686 173.641 265.269 173.816 265.865 173.814C266.662 173.812 267.425 173.493 267.988 172.929C268.55 172.364 268.866 171.6 268.866 170.803Z" fill="white" stroke="#263238" stroke-linecap="round" stroke-linejoin="round"/>
<path d="M268.866 95.594C268.866 95.594 253.474 101.605 251.528 102.63C250.69 103.136 249.801 103.551 248.875 103.869C248.875 103.869 249.756 117.315 250.115 120.858C250.473 124.402 256.126 127.761 261.083 127.587C266.039 127.413 270.105 124.75 270.996 123.163C271.887 121.575 274.355 116.793 274.355 116.793C274.355 116.793 280.192 115.769 280.5 110.597C280.807 105.425 279.086 106.501 277.14 107.586C275.195 108.672 274.13 109.358 274.13 109.358C274.508 107.481 274.192 105.53 273.239 103.869C271.703 101.257 269.224 98.0723 268.866 95.594Z" fill="white" stroke="#263238" stroke-linecap="round" stroke-linejoin="round"/>
<path d="M256.31 112.051C256.31 112.051 257.724 114.171 258.963 113.997" stroke="#263238" stroke-linecap="round" stroke-linejoin="round"/>
<path d="M255.778 115.236C255.778 115.236 258.778 118.073 263.971 115.769" stroke="#263238" stroke-linecap="round" stroke-linejoin="round"/>
<path d="M263.387 107.801C263.387 107.801 267.012 106.214 269.05 109.04" stroke="#263238" stroke-width="1.5" stroke-linecap="round" stroke-linejoin="round"/>
<path d="M256.31 107.453C256.31 107.453 253.474 105.681 251.354 107.094" stroke="#263238" stroke-width="1.5" stroke-linecap="round" stroke-linejoin="round"/>
<path d="M258.389 106.787C258.391 107.777 258.1 108.744 257.551 109.568C257.003 110.391 256.223 111.033 255.309 111.413C254.395 111.792 253.39 111.892 252.419 111.7C251.449 111.507 250.557 111.031 249.858 110.331C249.158 109.632 248.682 108.74 248.49 107.77C248.297 106.8 248.397 105.794 248.777 104.88C249.156 103.967 249.798 103.186 250.622 102.638C251.445 102.09 252.413 101.798 253.402 101.8C254.724 101.803 255.991 102.329 256.926 103.264C257.86 104.198 258.387 105.465 258.389 106.787Z" stroke="#263238" stroke-linecap="round" stroke-linejoin="round"/>
<path d="M270.832 108.19C270.834 109.179 270.543 110.146 269.995 110.97C269.447 111.793 268.667 112.435 267.754 112.815C266.841 113.194 265.836 113.295 264.866 113.103C263.896 112.912 263.004 112.436 262.304 111.738C261.604 111.039 261.127 110.149 260.934 109.179C260.74 108.209 260.838 107.204 261.216 106.29C261.594 105.377 262.235 104.595 263.057 104.046C263.879 103.496 264.846 103.203 265.835 103.203C267.157 103.206 268.425 103.732 269.362 104.666C270.298 105.6 270.827 106.867 270.832 108.19Z" stroke="#263238" stroke-linecap="round" stroke-linejoin="round"/>
<path d="M258.389 106.787C258.747 106.666 259.13 106.643 259.499 106.721C259.868 106.798 260.21 106.973 260.489 107.228" stroke="#263238" stroke-linecap="round" stroke-linejoin="round"/>
<path d="M271.006 108.979L275.912 108.282" stroke="#263238" stroke-linecap="round" stroke-linejoin="round"/>
<path d="M62.9512 346.753C61.5947 349.634 59.9257 352.358 57.9741 354.874C55.0145 358.51 54.2669 361.101 57.4826 363.354C60.6982 365.607 66.556 365.258 69.5054 361.623C72.4548 357.987 77.2066 347.961 77.2066 347.961C77.2066 347.961 66.8428 344.848 62.9512 346.753Z" fill="white" stroke="#263238" stroke-linecap="round" stroke-linejoin="round"/>
<path d="M99.0198 348.996C99.0198 348.996 104.14 355.745 107.213 359.237C110.285 362.729 116.091 364.419 119.194 364.245C122.297 364.07 126.752 363.036 123.741 357.506C120.731 351.976 114.443 346.61 114.443 346.61C114.443 346.61 107.868 346.61 103.352 346.087C98.8355 345.565 98.7945 347.962 99.0198 348.996Z" fill="white" stroke="#263238" stroke-linecap="round" stroke-linejoin="round"/>
<path d="M65.7778 221.885C65.7778 221.885 63.7296 245.439 64.426 262.009C65.1224 278.579 62.0706 311.647 61.0465 319.737C60.0224 327.828 61.9784 341.182 62.0706 344.121C62.1627 347.06 62.2651 348.627 62.2651 348.627C62.2651 348.627 63.7808 347.603 69.3621 348.627C71.8818 349.166 74.4395 349.508 77.0121 349.651C79.3147 345.756 81.2189 341.639 82.6958 337.362C84.3651 331.832 83.4229 326.097 83.2898 323.178C83.1567 320.26 82.6753 317.126 83.003 316.604C83.3308 316.081 90.1717 266.628 90.5404 255.732C90.9594 248.345 92.0564 241.012 93.8175 233.826C93.8175 233.826 97.0843 249.044 97.3404 254.923C97.5964 260.801 96.7566 308.708 97.1765 318.416C97.5964 328.125 96.8488 330.705 95.7428 333.122C94.6368 335.539 95.0361 336.748 95.8145 338.652C96.5928 340.557 99.0404 349.027 99.0404 349.027C99.0404 349.027 111.524 349.723 113.214 348.852C114.904 347.982 115.559 347.132 115.528 346.61C115.498 346.087 121.54 333.634 120.966 328.452C120.393 323.271 119.737 324.131 119.154 314.791C118.57 305.451 122.39 226.719 122.379 222.623C122.369 218.526 121.683 226.422 96.2241 221.599C70.7651 216.775 66.5049 218.598 65.7778 221.885Z" fill="#157FEC" stroke="#263238" stroke-linecap="round" stroke-linejoin="round"/>
<path d="M99.7571 342.267C99.7571 342.267 107.755 335.344 114.422 333.614L99.7571 342.267Z" fill="white"/>
<path d="M99.7571 342.267C99.7571 342.267 107.755 335.344 114.422 333.614" stroke="#263238" stroke-linecap="round" stroke-linejoin="round"/>
<path d="M67.0988 338.97C67.0988 338.97 77.094 334.126 79.9819 332.917L67.0988 338.97Z" fill="white"/>
<path d="M67.0988 338.97C67.0988 338.97 77.094 334.126 79.9819 332.917" stroke="#263238" stroke-linecap="round" stroke-linejoin="round"/>
<path d="M83.8735 93.9146C83.8735 93.9146 81.1904 87.8622 79.2036 89.9411C77.2169 92.02 78.7223 94.7748 81.4566 98.0621C84.191 101.349 86.3518 99.2706 85.7783 97.888C85.2048 96.5055 83.8735 93.9146 83.8735 93.9146Z" fill="white" stroke="#263238" stroke-linecap="round" stroke-linejoin="round"/>
<path d="M109.844 90.6272C109.844 90.6272 112.528 84.7489 114.719 87.555C116.911 90.361 112.2 97.2429 111.043 98.4513C109.885 99.6597 109.138 90.4941 109.138 90.4941L109.844 90.6272Z" fill="white" stroke="#263238" stroke-linecap="round" stroke-linejoin="round"/>
<path d="M51.594 166.38C51.594 166.38 50.8464 177.102 49.935 179.867C48.0743 186.384 47.2044 193.143 47.3543 199.919C47.7127 208.04 50.8976 225.685 50.9591 231.041C51.0205 236.397 49.3513 237.615 51.1434 238.998C52.9356 240.381 56.7452 244.538 58.1277 244.538C59.5103 244.538 61.6199 245.225 61.5687 244.19C61.5175 243.156 60.8416 243.32 60.2579 241.937C59.5126 239.922 58.9036 237.859 58.435 235.762C58.8556 234.235 59.3651 232.734 59.9609 231.266C59.9609 231.266 61.1898 235.588 61.4253 236.981C61.6609 238.373 63.5862 238.875 63.4735 236.284C63.3609 233.693 63.3097 232.649 63.1868 229.884C63.0639 227.119 60.8826 224.702 59.9609 223.309C59.0392 221.916 58.3121 221.066 58.2814 220.544C58.2506 220.022 61.2615 201.701 61.3536 195.3C61.4458 188.899 61.538 183.707 61.9988 182.499C62.4597 181.29 64.7536 170.394 64.7536 170.394L51.594 166.38Z" fill="white" stroke="#263238" stroke-linecap="round" stroke-linejoin="round"/>
<path d="M137.126 166.891C137.126 166.891 137.864 177.675 138.785 180.522C140.624 187.124 141.49 193.958 141.356 200.809C140.997 208.91 137.792 226.268 137.731 231.624C137.669 236.98 139.349 238.332 137.557 239.561C135.764 240.79 131.944 244.6 130.562 244.487C129.179 244.374 127.08 244.866 127.121 243.832C127.162 242.797 127.848 243.033 128.432 241.701C129.188 239.727 129.801 237.701 130.265 235.639C129.841 234.065 129.328 232.516 128.729 231C128.729 231 127.5 235.219 127.264 236.581C127.029 237.943 125.114 238.291 125.216 235.71C125.319 233.13 125.37 232.095 125.493 229.341C125.616 226.586 127.797 224.353 128.729 223.053C129.661 221.752 130.378 220.943 130.408 220.431C130.439 219.919 127.428 201.321 127.336 194.911C127.244 188.5 127.162 183.308 126.691 182.058C126.22 180.809 123.936 169.708 123.936 169.708L137.126 166.891Z" fill="white" stroke="#263238" stroke-linecap="round" stroke-linejoin="round"/>
<path d="M89.4138 113.802C89.4138 113.802 79.5825 118.472 73.6428 121.063C67.703 123.654 60.2374 126.768 60.3295 127.986C60.4217 129.205 54.0006 153.404 51.9729 158.422C49.9452 163.44 48.0507 167.414 48.0507 167.414C48.0507 167.414 55.3115 172.268 60.0223 173.292C63.0583 173.935 66.14 174.339 69.2392 174.501L63.6374 224.312C63.6374 224.312 74.9024 228.808 92.5475 228.982C103.496 229.063 114.439 228.485 125.319 227.252C125.319 227.252 126.978 186.288 126.803 182.284C126.683 180.089 126.762 177.889 127.039 175.709C129.727 176.295 132.52 176.179 135.15 175.371C137.463 174.51 139.729 173.529 141.94 172.432C141.94 172.432 133.347 138.186 131.934 133.516C130.521 128.846 131.176 128.16 129.947 127.638C128.719 127.116 115.139 121.237 110.705 118.646C106.27 116.055 104.56 116.045 100.679 114.837C96.7975 113.628 91.4108 112.072 89.4138 113.802Z" fill="#157FEC" stroke="#263238" stroke-linecap="round" stroke-linejoin="round"/>
<path d="M127.059 175.709L124.868 144.996" stroke="#263238" stroke-linecap="round" stroke-linejoin="round"/>
<path d="M69.6488 191.797L88.8301 191.275C88.8301 191.275 87.9801 215.321 87.3964 217.901C86.8127 220.482 82.9211 222.223 77.8928 222.049C72.8645 221.875 69.8229 219.458 69.2495 218.25" stroke="#263238" stroke-linecap="round" stroke-linejoin="round"/>
<path d="M68.5735 194.911L88.7994 194.737" stroke="#263238" stroke-linecap="round" stroke-linejoin="round"/>
<path d="M121.826 222.059C119.942 222.582 115.446 222.582 114.463 219.817C113.48 217.052 114.125 192.32 114.125 192.32L123.997 192.658" stroke="#263238" stroke-linecap="round" stroke-linejoin="round"/>
<path d="M114.043 194.388L123.434 195.771" stroke="#263238" stroke-linecap="round" stroke-linejoin="round"/>
<path d="M69.2392 174.501C69.2392 174.501 69.9356 150.813 69.6591 144.587" stroke="#263238" stroke-linecap="round" stroke-linejoin="round"/>
<path d="M86.4849 102.21C86.4849 102.21 87.9801 116.547 88.0416 118.124C88.103 119.701 89.8542 124.002 91.5132 126.255C93.1723 128.508 97.8114 135.769 99.6548 134.377C101.498 132.984 106.69 125.211 107.192 120.889C107.694 116.568 107.94 106.368 107.94 106.368C107.94 106.368 101.211 106.716 96.1114 104.985C91.0114 103.254 86.4849 102.21 86.4849 102.21Z" fill="white" stroke="#263238" stroke-linecap="round" stroke-linejoin="round"/>
<path d="M79.3162 80.7651L83.1361 92.8802C83.1361 92.8802 84.5698 101.872 87.1506 105.497C89.7313 109.122 98.774 114.325 102.881 113.28C106.987 112.236 111.831 108.436 111.647 104.289C111.463 100.141 110.623 88.0362 110.735 83.3663C110.848 78.6965 109.711 69.1826 106.885 66.5917C104.058 64.0007 94.5957 62.4339 87.806 65.2092C81.0162 67.9845 76.4078 73.1561 79.3162 80.7651Z" fill="#263238" stroke="#263238" stroke-linecap="round" stroke-linejoin="round"/>
<path d="M83.3512 93.9145C83.3512 93.9145 83.0132 94.0886 83.9042 90.6272C84.7952 87.1657 87.4783 85.435 87.7445 83.7145C88.0108 81.9941 84.365 81.4615 84.7644 78.8706C85.1638 76.2796 88.7277 74.3748 96.2957 73.5043C103.864 72.6338 108.902 77.1399 108.657 79.3826C108.411 81.6254 107.735 81.9838 108.841 83.5404C109.947 85.0971 110.418 88.0362 110.5 89.7669C110.582 91.4976 111.524 97.7139 109.885 99.6187C108.247 101.524 107.018 101.175 105.39 99.6187C103.761 98.0621 103.157 95.9934 99.5319 95.9934C95.9066 95.9934 94.7493 97.3759 94.1144 98.7585C93.4795 100.141 92.865 101.831 90.7964 101.831C88.7277 101.831 87.253 99.9259 85.7783 97.847C84.8796 96.5937 84.0687 95.2797 83.3512 93.9145Z" fill="white" stroke="#263238" stroke-linecap="round" stroke-linejoin="round"/>
<path d="M98.9379 85.4351C98.9379 85.4351 102.287 94.7748 102.143 95.4712C102 96.1675 100.361 98.2362 98.4464 98.0621C96.5313 97.888 95.5789 95.6453 95.5789 95.6453" stroke="#263238" stroke-linecap="round" stroke-linejoin="round"/>
<path d="M99.8801 84.196C99.7885 83.8834 99.7688 83.5542 99.8224 83.2329C99.8761 82.9116 100.002 82.6066 100.19 82.3407C100.378 82.0748 100.624 81.8548 100.909 81.6973C101.194 81.5397 101.511 81.4487 101.836 81.431C102.906 81.3791 103.975 81.5528 104.974 81.941C105.973 82.3291 106.878 82.923 107.632 83.684" stroke="#263238" stroke-width="2" stroke-linecap="round" stroke-linejoin="round"/>
<path d="M94.8415 83.1718C94.3473 82.8044 93.7777 82.5513 93.1737 82.4309C92.5698 82.3104 91.9467 82.3257 91.3493 82.4754C89.3012 82.9977 86.8331 86.111 86.8638 86.6333" stroke="#263238" stroke-width="2" stroke-linecap="round" stroke-linejoin="round"/>
<path d="M94.1759 88.2103C94.1759 89.0706 93.8175 89.7669 93.285 89.7669C92.7524 89.7669 92.2609 89.0706 92.2609 88.2103C92.2609 87.3501 92.6193 86.6537 93.1416 86.6537C93.6639 86.6537 94.135 87.3501 94.1759 88.2103Z" fill="#263238"/>
<path d="M104.181 87.6879C104.181 88.5481 103.823 89.2445 103.301 89.2445C102.778 89.2445 102.276 88.5481 102.276 87.6879C102.276 86.8276 102.635 86.1312 103.157 86.1312C103.679 86.1312 104.14 86.8276 104.181 87.6879Z" fill="#263238"/>
<path d="M95.2921 101.872C95.2921 101.872 98.6409 103.428 103.731 101.175" stroke="white" stroke-width="2" stroke-linecap="round" stroke-linejoin="round"/>
<path d="M82.9723 116.967C82.9723 116.967 88.0928 134.602 93.5921 146.195C99.0915 157.787 103.454 165.908 103.454 165.908C103.454 165.908 111.739 138.063 111.698 129.041C111.657 120.019 111.606 119.015 111.606 119.015" stroke="#263238" stroke-linecap="round" stroke-linejoin="round"/>
<path d="M109.589 183.492H99.0301L98.262 165.857H108.81L109.589 183.492Z" fill="white" stroke="#263238" stroke-linecap="round" stroke-linejoin="round"/>
<path d="M187.153 354.362C187.153 354.362 192.684 358.858 196.657 360.066C200.631 361.275 202.709 361.971 201.849 363.876C200.989 365.781 198.214 366.467 190.093 366.641C181.972 366.815 180.405 365.084 177.291 364.214C174.178 363.343 169.856 364.214 168.474 362.493C167.091 360.773 167.603 358.161 167.603 355.396C167.603 352.631 179.544 351.423 182.658 352.457C184.22 352.929 185.728 353.567 187.153 354.362Z" fill="white" stroke="#263238" stroke-linecap="round" stroke-linejoin="round"/>
<path d="M171.413 357.823C171.413 357.823 176.605 363.354 180.927 365.77C185.249 368.187 187.665 369.928 186.631 371.137C185.597 372.345 182.309 373.902 173.656 373.042C165.002 372.181 163.282 370.266 159.134 367.327C154.987 364.388 153.082 364.736 151.699 363.18C150.317 361.623 150.317 358.161 150.317 358.161L171.413 357.823Z" fill="white" stroke="#263238" stroke-linecap="round" stroke-linejoin="round"/>
<path d="M197.353 229.842C197.353 229.842 194.281 271.001 193.032 278.436C191.782 285.871 190.605 290.028 190.779 295.21C190.953 300.392 192.509 315.272 189.396 324.1C186.283 332.928 186.324 343.64 186.631 346.753C186.938 349.866 188.014 354.014 187.84 354.71C187.665 355.407 182.658 358.161 179.022 358.858C176.737 359.278 174.422 359.507 172.099 359.544C168.581 360.786 164.926 361.601 161.213 361.971C156.021 362.319 148.924 360.763 148.924 360.763C148.924 360.763 148.924 347.961 148.228 339.656C147.531 331.351 145.155 318.048 148.054 308.012C150.952 297.975 150.307 292.65 150.102 289.332C149.897 286.014 150.102 271.175 149.928 270.653C149.754 270.13 148.719 226.903 148.719 226.903C148.719 226.903 167.563 229.668 180.19 228.46C192.817 227.252 196.104 227.252 196.104 227.252C196.104 227.252 198.91 224.138 197.353 229.842Z" fill="#263238" stroke="#263238" stroke-linecap="round" stroke-linejoin="round"/>
<path d="M172.97 357.127C172.96 354.328 172.616 351.539 171.946 348.822C170.922 345.37 170.727 333.092 171.249 328.073C171.772 323.055 174.322 310.439 174.322 303.342C174.322 296.245 175.018 285.359 175.018 285.359" stroke="white" stroke-linecap="round" stroke-linejoin="round"/>
<path d="M208.762 281.549L189.058 281.375C188.198 281.375 188.198 268.236 188.198 268.236L208.762 281.549Z" fill="white" stroke="#263238" stroke-linecap="round" stroke-linejoin="round"/>
<path d="M167.091 232.269C167.091 232.269 186.805 233.478 197.876 231.573L194.066 138.534C194.066 138.534 191.475 134.212 184.552 131.785C177.629 129.358 169.334 132.809 166.395 136.107C163.456 139.405 165.535 231.921 165.535 231.921L167.091 232.269Z" fill="#157FEC" stroke="#263238" stroke-linecap="round" stroke-linejoin="round"/>
<path d="M167.952 131.785C167.952 131.785 148.412 141.647 145.473 143.378C142.534 145.109 142.4 151.325 142.4 154.274C142.4 157.224 143.261 288.124 143.261 288.124C150.657 288.607 158.082 287.849 165.228 285.881C172.275 284.037 178.906 280.867 184.767 276.541L181.48 206.155L177.793 144.412C177.793 144.412 175.561 127.29 167.952 131.785Z" fill="white" stroke="#263238" stroke-linecap="round" stroke-linejoin="round"/>
<path d="M173.83 125.385C173.83 125.385 169.334 125.907 167.429 128.457C166.313 129.962 165.493 131.664 165.013 133.475L163.282 149.041L169.16 147.659L166.221 154.571C166.221 154.571 169.16 163.225 172.447 170.486C175.735 177.747 180.579 192.617 180.579 192.617L178.326 146.102C178.326 146.102 178.326 132.615 177.302 129.717C176.278 126.818 175.212 125.385 173.83 125.385Z" fill="white" stroke="#263238" stroke-linecap="round" stroke-linejoin="round"/>
<path d="M185.075 134.899L188.536 275.845L208.762 281.549L205.823 174.162C205.823 174.162 206.345 146.512 204.614 142.682C202.884 138.852 187.328 131.099 185.771 131.304C184.214 131.509 185.075 134.899 185.075 134.899Z" fill="white" stroke="#263238" stroke-linecap="round" stroke-linejoin="round"/>
<path d="M185.074 127.812C186.334 128.119 187.511 128.695 188.526 129.502C189.541 130.308 190.369 131.325 190.953 132.482C192.684 136.281 197.179 148.048 197.179 148.048L191.475 148.734L197.527 153.056L186.805 193.354L185.597 149.738L184.573 131.755C184.573 131.755 183.344 128.846 185.074 127.812Z" fill="white" stroke="#263238" stroke-linecap="round" stroke-linejoin="round"/>
<path d="M172.447 119.506C172.447 119.506 173.144 124.525 172.099 127.29C171.055 130.055 175.387 138.708 177.117 144.064C178.848 149.42 180.579 153.752 181.613 153.23C182.647 152.708 186.283 132.482 186.109 129.881C185.935 127.279 187.665 119.506 187.665 119.506C187.665 119.506 178.152 122.272 172.447 119.506Z" fill="white" stroke="#263238" stroke-linecap="round" stroke-linejoin="round"/>
<path d="M160.302 114.232C165.748 114.232 170.164 109.62 170.164 103.93C170.164 98.2402 165.748 93.6277 160.302 93.6277C154.855 93.6277 150.44 98.2402 150.44 103.93C150.44 109.62 154.855 114.232 160.302 114.232Z" fill="#263238" stroke="#263238" stroke-linecap="round" stroke-linejoin="round"/>
<path d="M165.361 108.774C165.361 108.774 163.63 104.278 161.551 106.009C159.472 107.74 161.551 111.539 163.108 113.792C164.664 116.045 167.604 115.001 167.266 112.768C166.986 111.295 166.33 109.919 165.361 108.774Z" fill="white" stroke="#263238" stroke-linecap="round" stroke-linejoin="round"/>
<path d="M192.131 105.978C192.131 105.978 193.001 101.657 194.179 104.596C194.7 105.747 194.94 107.006 194.88 108.268C194.819 109.531 194.46 110.76 193.831 111.857C192.806 113.587 192.97 113.413 192.622 111.857C192.35 109.908 192.186 107.945 192.131 105.978Z" fill="white" stroke="#263238" stroke-linecap="round" stroke-linejoin="round"/>
<path d="M162.934 100.448C162.934 100.448 166.221 116.352 168.3 120.162C170.379 123.972 177.291 130.403 183.518 127.771C189.744 125.139 193.206 120.336 193.206 114.458C193.206 108.579 194.066 101.145 193.032 94.7337C192.51 91.8146 191.007 89.161 188.773 87.2114C186.538 85.2618 183.706 84.133 180.743 84.0114C175.202 83.8374 166.559 86.9506 164.828 92.4909C163.931 95.073 163.296 97.7388 162.934 100.448Z" fill="white" stroke="#263238" stroke-linecap="round" stroke-linejoin="round"/>
<path d="M163.108 106.327C163.108 106.327 172.796 102.517 179.022 97.847C185.249 93.1771 187.153 89.7259 187.153 89.7259C187.153 89.7259 190.093 97.6729 191.301 100.274C192.509 102.875 193.544 105.804 193.544 105.804C193.544 105.804 195.449 102.517 195.449 95.5633C195.449 88.6097 193.544 83.1103 186.232 79.4748C178.92 75.8392 167.04 78.0922 161.653 83.2844C156.267 88.4766 157.332 96.9458 158.714 100.233C159.796 102.514 161.285 104.579 163.108 106.327Z" fill="#263238" stroke="#263238" stroke-linecap="round" stroke-linejoin="round"/>
<path d="M184.552 99.9259C184.552 99.9259 183.528 100.1 183.528 103.213C183.528 106.326 184.552 111.508 184.388 112.205C184.225 112.901 182.34 114.97 181.111 113.761" stroke="#263238" stroke-linecap="round" stroke-linejoin="round"/>
<path d="M176.769 116.875C176.769 116.875 181.265 118.78 187.01 115.318" stroke="#263238" stroke-linecap="round" stroke-linejoin="round"/>
<path d="M185.249 99.5572C185.249 99.5572 188.894 98.1644 191.301 100.254" stroke="#263238" stroke-linecap="round" stroke-linejoin="round"/>
<path d="M179.196 100.274C177.613 99.804 175.942 99.7157 174.318 100.017C172.695 100.317 171.166 100.999 169.856 102.005" stroke="#263238" stroke-linecap="round" stroke-linejoin="round"/>
<path d="M176.769 105.282C176.769 106.306 176.349 107.187 175.827 107.187C175.305 107.187 174.875 106.337 174.875 105.282C174.875 104.227 175.294 103.387 175.827 103.387C176.359 103.387 176.769 104.237 176.769 105.282Z" fill="#263238"/>
<path d="M188.034 104.596C188.034 105.62 187.604 106.501 187.082 106.501C186.559 106.501 186.129 105.651 186.129 104.596C186.129 103.541 186.559 102.691 187.082 102.691C187.604 102.691 188.034 103.541 188.034 104.596Z" fill="#263238"/>
<path d="M199.084 174.674L196.012 169.656C195.141 168.274 191.168 168.796 189.263 168.796C188.273 168.899 187.321 169.23 186.48 169.763C185.64 170.296 184.934 171.017 184.419 171.868C183.733 173.251 180.62 175.504 181.828 176.886C183.037 178.269 186.324 177.398 186.846 177.747C187.368 178.095 191.69 181.034 193.247 181.556C194.075 181.86 194.96 181.976 195.838 181.894L199.084 174.674Z" stroke="#263238" stroke-linecap="round" stroke-linejoin="round"/>
<path d="M203.754 141.647C205.493 142.45 207.05 143.6 208.329 145.027C209.607 146.453 210.581 148.126 211.189 149.942C213.094 155.995 219.484 196.293 218.102 200.123C216.719 203.953 213.268 206.862 207.215 204.793C201.163 202.724 191.854 192.852 191.854 192.852L199.115 174.695L204.819 177.634L203.611 161.382" fill="white"/>
<path d="M203.754 141.647C205.493 142.45 207.05 143.6 208.329 145.027C209.607 146.453 210.581 148.126 211.189 149.942C213.094 155.995 219.484 196.293 218.102 200.123C216.719 203.953 213.268 206.862 207.215 204.793C201.163 202.724 191.854 192.852 191.854 192.852L199.115 174.695L204.819 177.634L203.611 161.382" stroke="#263238" stroke-linecap="round" stroke-linejoin="round"/>
<path d="M204.788 177.614C204.788 177.614 213.954 182.98 214.824 184.885" stroke="#263238" stroke-linecap="round" stroke-linejoin="round"/>
<path d="M193.196 153.404H159.82V200.103H193.196V153.404Z" fill="#263238" stroke="#263238" stroke-linecap="round" stroke-linejoin="round"/>
<path d="M174.874 185.919C174.874 185.919 181.265 182.458 183.17 180.553C185.074 178.648 185.423 178.505 186.457 178.505C189.002 178.504 191.545 178.329 194.066 177.982C195.09 177.634 194.588 180.03 194.066 180.573C193.544 181.116 190.267 181.792 190.267 181.792C190.267 181.792 195.797 181.27 195.971 183C196.095 183.497 196.079 184.018 195.925 184.506C195.772 184.994 195.486 185.429 195.1 185.765L194.588 186.288C194.588 186.288 195.1 189.913 194.588 191.644C194.076 193.374 193.032 193.897 190.779 194.235C187.772 194.427 184.753 194.255 181.787 193.723C180.056 193.374 174.178 194.583 174.178 194.583L174.874 185.919Z" fill="white" stroke="#263238" stroke-linecap="round" stroke-linejoin="round"/>
<path d="M151.873 140.265C151.873 140.265 141.632 142.508 139.932 143.542C138.232 144.576 132.498 185.745 131.289 192.698C130.081 199.652 142.011 201.004 145.626 202.386C149.241 203.769 175.745 205.807 175.745 205.807L176.093 184.362L157.762 179.692L157.588 150.117" fill="white"/>
<path d="M151.873 140.265C151.873 140.265 141.632 142.508 139.932 143.542C138.232 144.576 132.498 185.745 131.289 192.698C130.081 199.652 142.011 201.004 145.626 202.386C149.241 203.769 175.745 205.807 175.745 205.807L176.093 184.362L157.762 179.692L157.588 150.117" stroke="#263238" stroke-linecap="round" stroke-linejoin="round"/>
<path d="M157.752 179.692C157.752 179.692 151.351 176.753 147.204 178.31C143.056 179.867 139.595 187.824 139.595 187.824" stroke="#263238" stroke-linecap="round" stroke-linejoin="round"/>
<path d="M150.655 177.614C150.655 177.614 144.602 177.265 141.663 178.484C139.855 179.249 138.255 180.432 136.993 181.935" stroke="#263238" stroke-linecap="round" stroke-linejoin="round"/>
<path d="M183.518 151.847H171.761V155.657H183.518V151.847Z" fill="white" stroke="#263238" stroke-linecap="round" stroke-linejoin="round"/>
</svg>
